<svg id="Layer_1" data-name="Layer 1" xmlns="http://www.w3.org/2000/svg" viewBox="0 0 502.47 728.74"><defs><style>.cls-1{fill:#c28c59;}.cls-2{fill:#a07451;}.cls-2,.cls-30,.cls-6{opacity:0.74;}.cls-3{fill:#1f242a;}.cls-10,.cls-38,.cls-39,.cls-4{fill:#996031;}.cls-4{opacity:0.21;}.cls-5{fill:#fff;}.cls-6{fill:#af8056;}.cls-44,.cls-7{fill:#9d7354;}.cls-7{opacity:0.41;}.cls-8{fill:#c99a63;}.cls-9{fill:#60213d;}.cls-10{opacity:0.51;}.cls-11{fill:#cf8e49;opacity:0.32;}.cls-12{fill:#be894a;opacity:0.3;}.cls-13,.cls-17{fill:#251213;stroke:#190f10;}.cls-13,.cls-17,.cls-20,.cls-36{stroke-miterlimit:10;}.cls-14{fill:#423025;}.cls-15{fill:#d4b691;opacity:0.15;}.cls-16{fill:#4f2f2c;}.cls-17{stroke-width:0.75px;}.cls-18{fill:#402408;}.cls-19{fill:#533622;}.cls-20,.cls-27{fill:#2e1e16;}.cls-20{stroke:#2e1e16;}.cls-21,.cls-23{fill:#25150b;}.cls-21,.cls-22{opacity:0.84;}.cls-24{fill:#976f50;}.cls-24,.cls-25{opacity:0.54;}.cls-26{fill:#7e553d;}.cls-28{fill:#ccc;}.cls-29,.cls-36{fill:#b3b3b3;}.cls-30{fill:#999;}.cls-31,.cls-32,.cls-47,.cls-48,.cls-49{fill:#8e6146;}.cls-31{opacity:0.71;}.cls-33{fill:#322b2f;}.cls-34{fill:#452f27;}.cls-35{fill:#393139;}.cls-36{stroke:#b3b3b3;}.cls-37{fill:#a98b75;opacity:0.24;}.cls-38{opacity:0.26;}.cls-39{opacity:0.29;}.cls-40,.cls-41{fill:#191d20;}.cls-40,.cls-43{opacity:0.89;}.cls-42{fill:#121315;}.cls-45{opacity:0.85;}.cls-46{fill:#191d22;}.cls-47{opacity:0.64;}.cls-48{opacity:0.61;}.cls-49{opacity:0.57;}.cls-50{fill:#fafcfa;}</style></defs><title>josipsvg</title><path class="cls-1" d="M242.83,729.4c-3.73.82-5.73,3.94-9.53,9.88-8.44,13.16-10.71,30.14-5.79,33,1.61.94,2.91-.26,8.17.68a32.08,32.08,0,0,1,6.81,2c7.12,2.82,17.39,3,32.68,4.43,18.4,1.72,21.87,3.19,22.81,1.36,1.58-3.1-7.61-8.83-23.15-24.17C256,738,250.54,727.72,242.83,729.4Z" transform="translate(-23.42 -96.12)"/><path class="cls-2" d="M239.43,725.66c-1.72.76-4.46,6.53-9.88,18-7.54,16-9.21,20-7.15,23.49,2.33,3.89,8.53,5.21,10,5.53,1.8.4,3.3.71,4.34-.12,1.6-1.27.56-3.91.39-8.81-.14-3.82-.38-10.49,3.57-14.68a7.54,7.54,0,0,1,4.51-2.68c3.8-.45,6.54,3.55,10.56,7.48,1.52,1.5,7.37,6.22,19.06,15.66,11.16,9,12.62,9.33,13.28,8.86,2-1.42-2.1-10.68-5.11-16.34C272.69,742.66,251,720.54,239.43,725.66Z" transform="translate(-23.42 -96.12)"/><path class="cls-3" d="M321.47,421.32a54.08,54.08,0,0,0-6.1,5.48c-14.62,15.31-15.79,34.72-18.41,52.05-2.22,14.62-5.91,27.11-13.28,52.09-13.05,44.2-22.73,52.18-19.06,73.53a66.37,66.37,0,0,0,15.66,32.68c7.09,7.87,16.65,14.35,36.08,20.42,29.57,9.24,67.88,21.21,85.79,4.09,15.2-14.52-.93-34.09,5.11-87.15,5.61-49.41,22.64-59.26,17.36-83.06C420,470.74,399.4,443.4,321.47,421.32Z" transform="translate(-23.42 -96.12)"/><path class="cls-3" d="M157.72,350.85c-2.62,1.25-1.62,4.53-6.12,7.83-4.71,3.45-9,2.26-15,3.75-6.36,1.57-10.25,5.21-15.66,10.21-6.52,6-10.9,12.93-17,26.89C95.86,418,91.81,427.16,89.3,441.06c-3.31,18.3-1.44,30.3-9.87,37.11-1.73,1.39-5.65,4-6.47,8.51-.77,4.2,1.85,6.18,2.38,10.55.75,6.18-3.44,10.69-8.17,17.37a158.14,158.14,0,0,0-12.94,22.8c-4.55,9.92-12.55,32.29-12.93,45.28,0,1.63-.07,6.23-3.07,8.51-2.38,1.82-4.38.45-6.12,2-2.82,2.58,1,7.45,0,16-.76,6.68-3.42,6.77-3.07,12.26s3.13,7.64,1.7,10.89-4.52,2.17-6.46,5.11c-3.06,4.63,3,9.7,3.06,21.11,0,3.13-.45,2-1.36,11.91-.55,6-.65,9.36.34,13.28a27.17,27.17,0,0,0,2.38,6.12c6.37,12.56,2.25,20.85,8.17,29.28,3.84,5.46,9.39,7.52,18.47,10.9,7.16,2.65,10.63,2.51,20.94,4.59,6.91,1.4,7.68,1.93,24,6.38,17.91,4.89,17.64,4.43,50.18,13,10.56,2.77,11.76,3.13,18.75,4.92,12.25,3.13,22.64,5.63,30.13,7.4,15.2,3.59,30.55,7,30.55,7s4.14-23.41,5.79-27.92c1.46-4,1.44-3.27,4.43-10.89,3.48-8.88,5.65-15.33,6.12-16.68,7.05-20.18,29.55-35.6,35.07-60.6.5-2.27-1-14.79-4.09-39.83-3.92-32.11-6.51-42.31-10.55-52.42-4.28-10.72-5.6-9.86-10.55-22.13-1.68-4.14-7.22-18.35-10.9-40.51-5.38-32.41-2.77-51.72-9.87-66.72-4.61-9.75-9.32-18.05-9.32-18.05-3-5.25-3.3-5.26-5.23-9.06-2.06-4-2.49-5.55-4.22-7.15-3.43-3.17-8.14-3.11-9.48-3.19C190.66,397.25,166.91,346.48,157.72,350.85Z" transform="translate(-23.42 -96.12)"/><path class="cls-4" d="M174.57,238.34c-.39,2.31.53,5.18,2.39,6.13,3.17,1.61,6.91-3.48,14.81-8.17,13.52-8,29.54-9.17,32.34-9.36a67.13,67.13,0,0,0,8.51-1.2c4-.81,11.37-2.71,11.23-4.08-.1-1-4.43-1.39-6.13-1.53a33.34,33.34,0,0,0-8.51.34c-15.36,2.85-19.24,1.89-33.19,6.13C183.61,230.37,175.5,232.94,174.57,238.34Z" transform="translate(-23.42 -96.12)"/><path class="cls-5" d="M226.15,414.51c.34-.12,1.44-.24,7.66,8.85,4.47,6.53,7.19,10.5,10.38,16.85s3.85,9,7.49,13.28c2.09,2.44,3.57,4.16,6.13,5.45,5.95,3,13.48,1.5,18.44-1.86,1.35-.91,3.1-2.37,9-13.12,6.92-12.69,5.66-12.84,9.53-18.56,5.5-8.12,8.43-8.41,11.24-15.49,1.33-3.36.59-3.08,2.89-11.23,1.42-5,1.49-4.36,4.94-15.15,2.52-7.88,3.78-11.83,4.08-13.44a24.9,24.9,0,0,1,1.37-4.94c1.21-3,3.66-7.3,4.93-7,2,.51.46,12.36.17,16.17-.86,11.39-2.9,13.39-6,28.94-2.77,14.07-1.74,15.73-4.76,27.06-2.16,8.09-2.66,7.19-5.45,16.68-4,13.73-3.66,18-7.49,32.68-2.07,8-2.16,6.65-5.61,18.56-4.11,14.15-8.11,27.93-11.24,45.27-1.27,7.05-3.5,13.89-4.76,20.94,0,0-.58,3.21-7.15,16.17-.21.4-.71,1.37-1.37,1.36-1.44,0-2.4-4.74-3.06-7.32-1.61-6.33-3-6.22-9.19-19.06-1-2.18-4.08-8.59-7.15-16.51A191.69,191.69,0,0,1,243.68,516c-2.1-8.39-1-6.58-4.42-25-2.57-13.61-3.78-17.68-4.6-26.39-.78-8.29-1-12.59-1-12.59-.45-8.11,0-8.24-.68-10.73-1.64-6.43-4.35-6.91-6.47-13.61C224.69,422,224.43,415.12,226.15,414.51Z" transform="translate(-23.42 -96.12)"/><path class="cls-1" d="M218.74,399.45c-.45,1.33-.38,2.95,1.79,7.66a72.75,72.75,0,0,0,10.21,15.83,139,139,0,0,1,13,19.91c6.58,11.73,6.19,15,10.72,17.49,7.39,4.12,16.74.16,18.64-.64,2.61-1.1,8.09-3.51,20.68-23.23,7.77-12.18,11.66-18.27,15.06-25.79a156.65,156.65,0,0,0,9.45-28.34,180.81,180.81,0,0,0,5.11-29.87c1-13.14,1.48-20.86-2.3-29.11-1.16-2.52-3.59-7-5.87-11.23-5.64-10.42-5.5-9.31-6.64-12-4.79-11.3-3.08-21.68-5.88-22.09-1-.15-1.28,1.29-3.44,1.66-2.44.42-4.83-.94-6.77-2-2.41-1.37-3.06-2.34-3.83-2-1.39.53-1,4.35-1,5.87-.1,7.21-.15,10.81,1.53,18.89.41,2,3.19,15.89,0,28.6-1.27,5.06-4.93,10.69-12.25,22-8,12.24-11.94,18.36-18.13,24.51-8.14,8.08-13.46,13.37-22.47,16.59C227.89,395.08,220.34,394.79,218.74,399.45Z" transform="translate(-23.42 -96.12)"/><path class="cls-6" d="M217.47,400.89c0,.74.25,1.13,1.53,3.41,3,5.37,2.78,5.56,4.43,8.34,5.6,9.48,12.5,14.27,18.21,26,.79,1.63,3.94,8.31,8.68,16.68,1.5,2.65,2.19,3.75,3.57,4.77,6.58,4.82,17.58-.62,19.24-1.36,6.11-2.76,9.18-6.84,15.32-15,4-5.26,5.93-7.93,5.1-9.7-1.83-4-13,1.61-26.72-3.41a42.5,42.5,0,0,1-13.28-8.17A48.2,48.2,0,0,1,239.77,405c-2.85-6.46-2-9-4.77-10.72C229.31,390.69,217.65,396.33,217.47,400.89Z" transform="translate(-23.42 -96.12)"/><path class="cls-7" d="M286.15,272c2.79-2.27,7.68-1.31,10.72.51,3.61,2.16,5.05,5.75,6.64,9.71a43.83,43.83,0,0,1,2.35,8.67c1.15,5.41,3.9,10.67,9.4,21.2,4.82,9.24,6.21,10.57,7.5,15.63,1.43,5.58,2,12.9-.1,13.73-3,1.18-11.26-11-18.13-12.51a9.23,9.23,0,0,0-3.83,0,9.9,9.9,0,0,0-4.59,3.06c-1.61,1.76-2.12,3.12-3.58,6.13a71.81,71.81,0,0,1-4.85,8.94,68.12,68.12,0,0,1-4.78,6.29c-1.15,1.35-1.47,1.54-2.37,2.64-4.27,5.23-5.56,8.69-6.38,8.43-1.2-.38-.27-8.28,2-16.6,5.23-18.86,11.48-18.08,13-28.85,1.7-11.8-4.69-20.55-5.36-39.32C283.79,277.85,283.71,274,286.15,272Z" transform="translate(-23.42 -96.12)"/><path class="cls-8" d="M215.17,132.64c-4.43-1.83-21.39-8.83-34.72-1.53-8.89,4.86-8.34,11.8-19.41,18.38-9.17,5.46-11.29,1.72-27.83,7.66-10,3.6-20.08,7.37-26.55,17.11-2.63,4-3.63,7.34-5.11,12.51A80,80,0,0,0,99,220.47c2.27,16,7.31,15.12,14.81,40.34a102.3,102.3,0,0,0,7.66,19.66c2.56,4.91,3.37,5.41,5.36,9.44,4.48,9.08,4.88,15.62,6.38,22.22,2.08,9.1,6.06,15.2,12,26,1.38,2.52,4.47,8,8.94,14.81,10.62,16.12,12.23,13.92,25.53,31.91,1.66,2.25,11.54,15.67,20.68,18.9a23,23,0,0,0,2.81.76c6.11,1.18,11.08-1,15.06-2.55,11.37-4.48,9.59-2.11,18.9-6.13,7.22-3.11,12.78-5.51,18.64-10.72,3.33-3,5.54-5.9,10-11.75,4-5.28,6.2-8.82,10.22-15.06,13.42-20.84,13.64-19.91,15.06-23.74,1.22-3.31,4.7-12.72,2.81-24-1.33-7.89-5.69-19.13-5.62-29.11,0-1.23.1-4.54,1.28-4.85,1-.26,1.79,1.84,3.57,3.06,3.5,2.4,9.74.74,13.53-2,2.08-1.52,2.73-2.86,8.69-16.34,3.47-7.87,3.73-8.51,4.08-10,1.18-4.85.69-7.64.26-15.83-.84-15.83.47-15.51-1-20.17-1.11-3.49-3.45-10.77-10.46-14.3-1.05-.52-6.2-3.18-12-1.53-6.92,2-10.16,8.84-12.26,13.28-5.12,10.82-4.4,21.5-5.36,21.45-.33,0-.9-2.48-2-7.41h0C273.2,211.37,254.8,149,215.17,132.64Z" transform="translate(-23.42 -96.12)"/><path class="cls-9" d="M154.23,272.62a3.33,3.33,0,0,1,1.58,3.25c0,.24-.19,1.58-1,1.91s-2.1-.77-4-2.68c-.9-.88-1-1.13-1-1.35C149.9,272.76,152.44,271.61,154.23,272.62Z" transform="translate(-23.42 -96.12)"/><path class="cls-9" d="M197.69,250.65a3.34,3.34,0,0,1,3.52.82c.17.18,1.1,1.15.83,2s-1.92,1.15-4.63,1.45c-1.26.14-1.5.06-1.66-.1C195.07,254.1,195.78,251.4,197.69,250.65Z" transform="translate(-23.42 -96.12)"/><path class="cls-10" d="M168.7,328.47c0-.07-3.75-.51-5.61-3.32-2-3-.35-6.51.51-11.75.67-4.14.36-7.78-.26-15.06-.88-10.34-2.73-9.77-4.6-22.47-1-7.06-.59-10.49-3.57-13.53-2.48-2.53-5.92-3.47-8.17-4.08-3.51-1-8.22-2.25-9.7-.52-3.12,3.64,12.62,15,17.87,36,2.93,11.74,4.4,17.6,4.09,21.2-.22,2.39-.79,5.91,1.27,8.93C163.2,327.78,168.67,328.54,168.7,328.47Z" transform="translate(-23.42 -96.12)"/><path class="cls-4" d="M105.64,164.64c-2.93,4.21-.87,6-4.09,25.87-1.61,10-2.47,11.62-2.72,18A73.78,73.78,0,0,0,100.58,228c1.61,6.89,3.28,8.93,7.36,18.49,8.32,19.53,5.56,20.84,12,32.51,5.49,10,8.15,10.17,11.38,18.89,3.42,9.19.86,10,3.68,20.09,3.74,13.37,11.55,23.83,18.3,32.85,1.29,1.73,3,3.92,6,8,3.35,4.53,4.88,6.72,6.83,9.22,1.33,1.72,2.34,2.94,2.82,3.52,8.69,10.6,17.52,23,18.36,22.46s-11.24-12.91-15.64-33.36c-2.87-13.34-.23-19.28-6.13-28.59-2.23-3.52-5.21-6.8-5.1-11.92.09-4.52,2.5-5.64,3.4-11.57.39-2.56-.07-5.94-1-12.6-.7-4.89-.66-3.76-2.72-15.66-1.16-6.68-1.59-9.49-3.92-12.68a23.1,23.1,0,0,0-4.08-4.08c-5.35-4.64-8-7-11.75-9.71-6.47-4.75-14.76-15-18.38-25.95-4.29-13-1.19-24.67.68-31.66,6.18-23.19,20.44-30.78,16.94-36.85C135.69,152.67,113.15,153.84,105.64,164.64Z" transform="translate(-23.42 -96.12)"/><path class="cls-11" d="M189.89,253.28c-.31-4.79,3.16-8.44,4.73-10.09,10-10.52,41.15-11.52,43.15-4.59.51,1.79-1.19,3.66-4.6,7.4-8,8.84-18,11.29-23.23,12.51-5.73,1.33-15.21,3.54-18.64-.89A8,8,0,0,1,189.89,253.28Z" transform="translate(-23.42 -96.12)"/><path class="cls-5" d="M196.19,253.32c-.82-1.75,3.21-5.21,4.09-6,4.64-4,9.44-5.18,16.68-7a41.86,41.86,0,0,1,8.42-.59c1.4,0,2.35,0,2.64.59.66,1.25-2.42,4.05-3.57,5.11a34.77,34.77,0,0,1-9.88,6.3,39.32,39.32,0,0,1-14.72,2.57C198,254.33,196.58,254.15,196.19,253.32Z" transform="translate(-23.42 -96.12)"/><path class="cls-12" d="M157.77,271.66a10.22,10.22,0,0,0-3.07-4c-7.07-5.32-26.57,3.54-26.68,11.75-.05,3.51,3.47,6.15,4,6.51,3.61,2.63,8.23,1.78,13.91.76a20.9,20.9,0,0,0,5.88-1.78c2.11-1.06,4.49-2.25,5.87-5A10.34,10.34,0,0,0,157.77,271.66Z" transform="translate(-23.42 -96.12)"/><circle class="cls-13" cx="190.45" cy="150.21" r="4.99"/><path class="cls-14" d="M198.75,254.29a43.54,43.54,0,0,0,8.68-.79,33.9,33.9,0,0,0,8.25-2.62,48.31,48.31,0,0,0,7.34-4.56,56.13,56.13,0,0,0,6.55-5.72l.07.06a30.64,30.64,0,0,1-6,6.45,34.2,34.2,0,0,1-7.62,4.5,33.72,33.72,0,0,1-8.5,2.38,42.91,42.91,0,0,1-8.77.4Z" transform="translate(-23.42 -96.12)"/><path d="M195.08,254.13a21.3,21.3,0,0,1,6.56-9,25.92,25.92,0,0,1,10.29-4.76,35.47,35.47,0,0,1,5.64-.92,46.12,46.12,0,0,1,5.64,0,80.41,80.41,0,0,1,11.12,1.37l0,.2c-1.87.18-3.73.29-5.58.32s-3.72.09-5.57.11-3.69,0-5.51,0a26.76,26.76,0,0,0-2.69.12c-.88.1-1.82.24-2.7.39a24.58,24.58,0,0,0-10,4,20.8,20.8,0,0,0-7,8.32Z" transform="translate(-23.42 -96.12)"/><circle cx="189.75" cy="148.54" r="2.09"/><path class="cls-15" d="M172,240.64c-5.32,4.34,2.91,14.74,5.11,38,0,0,1.06,11.87,7.4,28.34.45,1.17,1.23,2.76,2.3,2.81,1.35.06,1.6-2.42,4.34-6.32s5.34-5.54,5.39-9a4.21,4.21,0,0,0,0-.75c-.23-1.78-1.61-3.34-4.34-6.38-4-4.43-5.11-4.42-6.89-6.64-2.2-2.74-3-5.49-3.83-16.85-1.18-16.91-.6-22.75-3.83-24.25A5.73,5.73,0,0,0,172,240.64Z" transform="translate(-23.42 -96.12)"/><path class="cls-16" d="M167.26,237.83c-.55,4.44,4.11,9.65,7,9.19,1.09-.17,1.57-1.11,2.73-2.55,1.67-2.1,3.95-3.73,8.51-7,4-2.85,7.54-4.23,14.64-7,6.27-2.43,9.49-3.68,14.29-4.77,6.13-1.38,21.31-3.94,23.15-4.25,1.13-.19,3.75-.62,3.75-1.19s-2.85-1-6.47-1.53c-9.71-1.34-17.38-2.13-18.21-2.22-11.21-1.12-10.43-1.38-12.09-1.19-4,.47-7.92,2.48-15.66,6.47a121.47,121.47,0,0,0-11.74,6.81C170.78,232.84,167.6,235,167.26,237.83Z" transform="translate(-23.42 -96.12)"/><path class="cls-16" d="M146,261.49c-.83,1.91-4.19,1-11.59,2.66-3.89.88-6,1.35-8.5,2.79-5.08,2.9-6.75,6.81-8.68,6.12-.85-.3-1.3-1.62-2.21-4.25-.84-2.45-1.26-3.68-1-4.94.12-.61.48-1.81,5.62-5.78a43.72,43.72,0,0,1,5.27-3.75,26.15,26.15,0,0,1,8-3.23c2.79-.59,4.79-1,6.81,0,1.46.72,2.19,1.82,3.58,3.91C145.34,258.16,146.6,260.06,146,261.49Z" transform="translate(-23.42 -96.12)"/><path class="cls-16" d="M130.66,222.34" transform="translate(-23.42 -96.12)"/><path class="cls-5" d="M155.49,278.05a4.3,4.3,0,0,1,.38-.49c0-.06.06-.16.09-.28a2.67,2.67,0,0,0-.07-1.48,5,5,0,0,0-1.4-2.06,10.13,10.13,0,0,0-7-1.85,16.21,16.21,0,0,0-8.49,3.22,20,20,0,0,0-6.29,7.3v0a18.61,18.61,0,0,0,1.7,2c1.09.94,4.7.11,5.79-.17,5.06-1.3,7.59-1.95,8.54-2.33a44.1,44.1,0,0,0,4.78-2.14,4.29,4.29,0,0,1,1-.76Z" transform="translate(-23.42 -96.12)"/><path class="cls-14" d="M156.58,276.32a11.35,11.35,0,0,1-5.09,4.79,53.79,53.79,0,0,1-6.59,2.52,24.56,24.56,0,0,1-6.9,1.69,9.58,9.58,0,0,1-3.6-.5,6.32,6.32,0,0,1-2.89-2.13l.08-.07a8.17,8.17,0,0,0,6.35,1.71,37.62,37.62,0,0,0,6.72-1.47,50.22,50.22,0,0,0,6.61-2.2,10.93,10.93,0,0,0,5.22-4.39Z" transform="translate(-23.42 -96.12)"/><path class="cls-17" d="M146.06,272.72a5.78,5.78,0,0,0-1.15-.39,5.07,5.07,0,0,1-1.69.51A4.71,4.71,0,0,1,140,274h-.11a4.87,4.87,0,0,0-1.14,3.15,5,5,0,0,0,10,0A5,5,0,0,0,146.06,272.72Z" transform="translate(-23.42 -96.12)"/><path d="M154,272.31a21.47,21.47,0,0,0-7.63.24,20.12,20.12,0,0,0-7,2.64,12.6,12.6,0,0,0-2.75,2.38c-.81.89-1.46,1.91-2.33,3a11.42,11.42,0,0,1-7,4l-.07-.19a18.18,18.18,0,0,0,5.43-5,16.84,16.84,0,0,1,2.49-3.13,16.27,16.27,0,0,1,3.37-2.39,21.24,21.24,0,0,1,7.66-2.25,21,21,0,0,1,7.83.55Z" transform="translate(-23.42 -96.12)"/><path class="cls-5" d="M164.79,283.19" transform="translate(-23.42 -96.12)"/><path class="cls-5" d="M185.47,294.94" transform="translate(-23.42 -96.12)"/><circle cx="121.45" cy="179.07" r="2.09"/><path class="cls-18" d="M102.06,180.64c1.13.25,2.22.09,6.13-1.7a103.82,103.82,0,0,0,17-10.05c5.78-4,10.45-6.09,16.51-8.85,15.65-7.11,19.57-4.81,26.9-11.06,6.48-5.54,4.84-8.57,10.72-12.09,7.23-4.31,15.39-3.11,24.17-1.7,3.86.62,8.24,1.61,24.68,7.83,12,4.55,18.12,6.86,27.41,10.89,19.16,8.34,24.28,12,26.21,10.05,3.15-3.24-6.16-17.54-12.09-25-8.76-11.07-18.3-17.57-24.34-21.62a131,131,0,0,0-20.25-11.06c-8.91-3.92-20.08-8.71-35.41-9.88a90.89,90.89,0,0,0-24.85,1.53c-12.94,2.63-21.41,7.35-34.55,14.81-16.3,9.26-24.58,14.09-30.64,24a42.12,42.12,0,0,0-6.47,21.11C93.05,166.53,95.82,179.27,102.06,180.64Z" transform="translate(-23.42 -96.12)"/><path class="cls-19" d="M128.74,279.32c1.38-1.62,2.77-3.26,4.28-4.76a25.65,25.65,0,0,1,5-4.11,17.16,17.16,0,0,1,6.08-2.2,13.77,13.77,0,0,1,6.38.6,16.59,16.59,0,0,0-6.28,0,17.92,17.92,0,0,0-5.8,2.28,28.1,28.1,0,0,0-5,3.87c-.81.7-1.56,1.44-2.32,2.18S129.55,278.61,128.74,279.32Z" transform="translate(-23.42 -96.12)"/><path class="cls-19" d="M194.23,246.26a29,29,0,0,1,7.84-6.25,35,35,0,0,1,9.47-3.43,43.29,43.29,0,0,1,10-.81,51.06,51.06,0,0,1,9.94,1.29,72.28,72.28,0,0,0-9.95-.72,46.61,46.61,0,0,0-9.87,1,36.31,36.31,0,0,0-9.35,3.21l-2.18,1.19-2.07,1.38A32.35,32.35,0,0,0,194.23,246.26Z" transform="translate(-23.42 -96.12)"/><path class="cls-20" d="M190.4,321.4c-.05-.06.3-.45.95-1.16a20.67,20.67,0,0,1,4.59-3.91c.67-.43,1.26-.73,2.43-1.35a6.11,6.11,0,0,1,1.74-.72c.53-.12,1.66-.25,1.8.08s-1.75,1.7-2.82,2.3a39.68,39.68,0,0,1-3.83,1.62C192.28,319.64,190.53,321.55,190.4,321.4Z" transform="translate(-23.42 -96.12)"/><path class="cls-19" d="M204.19,293.49a11.53,11.53,0,0,1,3.34,3.8,11.8,11.8,0,0,1,1.55,4.89,9.72,9.72,0,0,1-1,5,10.17,10.17,0,0,1-3.35,3.8,12.72,12.72,0,0,0,2.82-4,10.31,10.31,0,0,0,.81-4.74,13.27,13.27,0,0,0-1.31-4.69A15.06,15.06,0,0,0,204.19,293.49Z" transform="translate(-23.42 -96.12)"/><path class="cls-21" d="M102.23,178.26c-.37.09-9.53-17.58-3.23-33a41.86,41.86,0,0,1,5.45-9c7.62-10.55,16.53-16.35,16.85-16s-7.94,5.75-14.64,17a49.42,49.42,0,0,0-7.15,19.41C97.9,169.28,102.5,178.19,102.23,178.26Z" transform="translate(-23.42 -96.12)"/><path class="cls-21" d="M114.66,172.13c-.94-.16-.6-10.91,2-21.79,1.36-5.6,3.47-14,9.53-22.81,5.46-8,12.44-13.88,12.94-13.44.33.28-2.19,3.22-5.11,7.65-6.84,10.41-10,20.14-14.12,33.2C116.24,166.61,115.35,172.24,114.66,172.13Z" transform="translate(-23.42 -96.12)"/><path class="cls-21" d="M142.74,150.34a106.69,106.69,0,0,1,7-12.43,107.84,107.84,0,0,1,25.71-27.23" transform="translate(-23.42 -96.12)"/><g class="cls-22"><path class="cls-23" d="M165.17,138.06a71.94,71.94,0,0,1,6.11-8.42,81.37,81.37,0,0,1,7.28-7.46,44.67,44.67,0,0,1,8.4-6.24,41.68,41.68,0,0,1,4.74-2.22c1.65-.58,3.32-1.08,5-1.55l0,.09c-1.58.75-3.17,1.39-4.74,2.09a50.54,50.54,0,0,0-4.52,2.46,62.09,62.09,0,0,0-8.37,6,80.17,80.17,0,0,0-7.44,7.19,72.08,72.08,0,0,0-6.4,8.14Z" transform="translate(-23.42 -96.12)"/></g><path class="cls-18" d="M218.11,136.72c-.67,2,4.23,3.36,8.17,11.62a36.81,36.81,0,0,1,3.44,14.55c.3,11.27-4.92,17.6-1.4,21.32a9,9,0,0,0,4.59,2.17c4,1,6-.63,8.69-.51,1.48.07,4.51.7,11.36,10.47a109.15,109.15,0,0,1,9.7,17.11s1.55,3.34,7.66,18.64h0a13.77,13.77,0,0,0,6.89,2.29,3.06,3.06,0,0,0,1.28-.12c1.77-.78,1.68-3.92,2-7.54a104.4,104.4,0,0,1,2.3-11c1.46-6.21,2.15-7.33,2.81-8.17a22.36,22.36,0,0,1,5.23-4.46c2.85-1.86,3.31-1.4,3.85-2.3,1.54-2.57-2.42-5.92-4.74-14-.43-1.49-.12-.76-1.15-5.62-1.55-7.3-2.38-11.21-4-15.32a57.72,57.72,0,0,0-5.49-10.34C267.66,138.11,220.15,130.66,218.11,136.72Z" transform="translate(-23.42 -96.12)"/><path class="cls-24" d="M178.4,353.74c.44-.86,3.62.79,8.69.77a27.59,27.59,0,0,0,9.7-2c5.84-2,6.11-3.46,13.53-7.15,8-4,8.78-2.88,13.28-6.13,4.25-3.07,8.17-6.38,8.17-6.38,2.83-2.4,4-3.58,4.34-3.32.19.15.29.9-5.88,11.23-5.52,9.25-6.77,10.61-7.66,11.49a36.09,36.09,0,0,1-9.95,6.9,44.9,44.9,0,0,1-9.45,3.32c-4.93,1.24-7.39,1.86-10.47,1.27s-5-1.94-8.17-4.08C183.93,359.21,177.77,355,178.4,353.74Z" transform="translate(-23.42 -96.12)"/><path class="cls-24" d="M178.35,353.56c.44,1.26,3.26,1.32,6.12,1.36a38.64,38.64,0,0,0,11.92-1.7c2.25-.71,2.29-.92,11.06-5.11,9.27-4.42,10.44-4.78,13-6.67,1.27-.93,2.74-2.13,5.9-4.39,1.42-1,2.81-2.08,4.25-3.06a21.15,21.15,0,0,0,4.43-3.58c.54-.61,1.32-1.35,1.19-1.53s-2.11,1.29-4.94,2.38a24.22,24.22,0,0,1-4.93,1.19c-5,.9-5.43.46-8.86,1.2a50.72,50.72,0,0,0-6.63,2c-3.16,1.11-5.47,2.11-6.47,2.55-4.1,1.82-6.18,2.69-7.49,4.09-.88.92-1.28,1.66-2.38,2-1.92.66-3-.75-5.11-.68-1.56.05-3,1.34-6,3.91C179.79,350.84,178,352.46,178.35,353.56Z" transform="translate(-23.42 -96.12)"/><g class="cls-25"><path class="cls-26" d="M178.75,353.62a69.42,69.42,0,0,0,15.8-.69,28.84,28.84,0,0,0,7.26-2.92l7.06-3.67q3.56-1.79,7.16-3.5c2.39-1.16,4.84-2.21,7.11-3.49a68,68,0,0,0,6.55-4.45,75.74,75.74,0,0,0,6.08-5.11A63.17,63.17,0,0,1,223.54,340c-2.3,1.43-4.75,2.45-7.11,3.65s-4.75,2.36-7.11,3.57l-7.1,3.59a26.71,26.71,0,0,1-7.52,2.86,52.41,52.41,0,0,1-8,.53A78.28,78.28,0,0,1,178.75,353.62Z" transform="translate(-23.42 -96.12)"/></g><path class="cls-27" d="M169.47,327.32a18.47,18.47,0,0,1,3.19,1.53,20.18,20.18,0,0,1,2.17,1.53" transform="translate(-23.42 -96.12)"/><path class="cls-27" d="M169.47,327.32a6.18,6.18,0,0,1,3.05.87,6.66,6.66,0,0,1,1.26,1,6.09,6.09,0,0,1,1.05,1.21,6.78,6.78,0,0,1-1.49-.57c-.46-.22-.86-.52-1.31-.75A15.65,15.65,0,0,1,169.47,327.32Z" transform="translate(-23.42 -96.12)"/><path class="cls-28" d="M262.91,471c.86-2.31,6-1,12.6-3.06s10.81-6.11,13.62-8.85c3.64-3.57,3.79-5.09,15-21.79,2.16-3.24,3.6-5.34,4.08-5.11.74.36-1.44,6.05-4.42,14.64-7.08,20.4-5.19,18.43-7.49,22.47-6.65,11.69-14.38,14.09-20.15,20.22a1.62,1.62,0,0,1-1,.55c-1.89.17-3-4.66-6.13-9.88C265.35,474,262.24,472.86,262.91,471Z" transform="translate(-23.42 -96.12)"/><path class="cls-29" d="M496.45,548" transform="translate(-23.42 -96.12)"/><path class="cls-28" d="M252,528.21c0-1.47,3.65-1.67,8.17-4.08,6.84-3.64,14.66-11.81,16.68-21.11.49-2.22.68-4.72,2-5.11,1.75-.48,4.53,2.72,5.79,5.45,3.54,7.7-4.42,13.1-5.79,25.87-1.13,10.63,5.95,14.12,3.07,23.83-.07.24-.06.17-3.75,8.85-4.68,11-5.37,12.7-6.12,12.6-1.62-.21-1.14-8.38-3.41-23.49-1.69-11.28-3-14.55-5.79-17C258.27,529.83,252,530.13,252,528.21Z" transform="translate(-23.42 -96.12)"/><path class="cls-30" d="M233.72,444.93c.48-.14.74,5.84,5.17,11.05,2.35,2.77,3.47,2.49,11.42,8.72,4.24,3.32,6,5.07,5.71,6.68s-2.35,2.21-2.72,2.33c-4.05,1.36-8.33-2.47-9.79-3.78-.73-.65-3.74-3.43-6.53-10.17C233.88,452.28,233.18,445.09,233.72,444.93Z" transform="translate(-23.42 -96.12)"/><path class="cls-1" d="M274.66,634.6c1.6,4.58-4,8.24-13.28,20.42-7.21,9.49-18.46,24.29-23,42.89-3.14,13-1.76,22.6-5.61,23.49-2.33.54-4.64-2.54-10.73-9.7-5.31-6.24-11.22-12-16.34-18.38-18.53-23.18-29.8-37.28-43.91-43.41-1.93-.83-8.06-3.33-16.34-7.65a109.13,109.13,0,0,1-11.75-6.64,73.29,73.29,0,0,1-16.34-15.32c-4-5.16-8.6-11-10.72-19.92-1-4.06-2.1-8.83-.51-14.29.94-3.25,2-3.89,3.06-8.18,1.3-5.32.18-6.57,1.53-10.21,1.64-4.38,3.65-3.61,6.13-8.17,3.46-6.36.48-9.6,4.09-14.3.76-1,3.06-2.53,7.66-5.61,5.68-3.82,6.41-3.74,8.17-5.62,3.67-3.93,2.34-6.21,5.1-8.68,4-3.56,10.55-2.21,16.34-1,5.39,1.11,11.88,2.44,15.32,7.66,1.92,2.91,1.54,5,3.82,6.37,3.07,1.86,5.85-.63,10.48-.76,8-.21,15.85,6.86,18.89,13.79,1.41,3.21,1.46,6.23,1.54,12.26a126.4,126.4,0,0,1-2.56,24.51c-.62,2.87-.92,3.73-.51,5.1,1.49,5,8.55,4.33,16.85,10,5.71,3.88,4.5,5.64,11.24,11,2.32,1.84,5.73,4.23,15.06,8.43C267.28,631.11,273.14,630.26,274.66,634.6Z" transform="translate(-23.42 -96.12)"/><path class="cls-3" d="M310.53,303c2.26-4,19.9,2.33,21.83,3,9.76,3.56,14,7.6,15.07,8.68,3.46,3.42,2.7,4.27,5.1,5.87,6.44,4.3,12-1.75,22,.51,6.23,1.42,4.94,4,15.83,8.68,5.93,2.57,6.54,1.91,15.06,5.11,8.15,3.06,8.34,3.95,15.83,6.89,10.75,4.23,12.8,3.38,20.68,6.64,6.54,2.71,11.07,5.75,17.62,10.47C482.77,375.6,494.4,384,500.19,391.7c9.84,13.11,12.5,26.08,15,37.79,4,18.76,2.92,35.21,1.19,62.3-1,16.16-2.12,19.69-1,29.44,1.78,15.86,6,18.73,7.15,34.39.94,13.13-1.87,13.53-1.19,29.1.66,15.21,3.66,15.52,4.42,30,.79,14.9-1.5,18.83-2.72,40.51-1.09,19.46.57,19.62-.34,32.34-1.3,18.16-5.07,23-12.94,52.09C502,768,502.1,776.4,498.93,787.55a85.19,85.19,0,0,1-3.84,11c-4.36,9.89-15.45,27.34-22.82,26.31-16.11-2.25-19-93.24-37.44-124.35-6.15-10.38-20.82-25.4-25.19-28.26a109.82,109.82,0,0,1-10.55-7.49c-6.69-5.37-8-7.78-12.09-10.72-8.86-6.4-17.4-3.13-18.38-6.64-.74-2.65,3.7-4.79,8.17-10.72,3.94-5.24,5.25-9.92,7.66-18.9,6.94-25.89,10.42-38.89,10.72-41.36,2.89-23.73-3.48-23.94,1-37.27,5.91-17.5,18.3-21.34,17.36-33.2-.66-8.34-7.43-14.24-14.81-19.91-42.29-32.52-84.45-40.85-84.76-57.7,0-1.54.34-.63,2.21-9.7,1.91-9.29,2.18-13.42,3.92-24.51,2.07-13.26,2.85-12.53,3.06-17.88.06-1.39,0-2.13.1-16.5,0-3.42,0-5.13,0-5.61.12-20.39.75-21.83-.53-26.34-1.06-3.75-2.57-6.51-5.59-12C312.42,307,309.53,304.73,310.53,303Z" transform="translate(-23.42 -96.12)"/><path class="cls-31" d="M269.89,630.68a10.12,10.12,0,0,0-2.52-.75c-4.95-.63-12.52,16.29-13.65,18.79,0,0-5.92,13.17-17.36,33.37-9.72,17.16-16.86,25-13.52,30.53a8.6,8.6,0,0,0,5.35,3.51c21,4.44,50.86-75.68,46.47-81.53A13.3,13.3,0,0,0,269.89,630.68Z" transform="translate(-23.42 -96.12)"/><path class="cls-3" d="M396.36,649.74a98.05,98.05,0,0,0-18.72-4.08c-11.85-1.47-14.29.3-15.32,1.36-3.4,3.51-.83,9-4.77,11.58a8.2,8.2,0,0,1-6.81.68c-2.86-1-2.79-3-5.78-4.09-2-.71-2.92-.05-6.81,0a52.16,52.16,0,0,1-7.49-.68c-6.19-.91-11.17-3.52-14.3-5.11-6.23-3.15-20.76-10.42-37.45-14.63-1.76-.45-3.59-1.59-6.12-1.37-7.39.65-12.06,9.78-15,15.32-14.72,27.95-18.74,28.94-28.38,53.82-3.27,8.45-6.85,18.78-2.26,24.14,1,1.17,1.87,1.22,4.43,3.06a112.08,112.08,0,0,1,14,11.92c28.25,28.08,53.11,42.21,53.11,42.21a118.2,118.2,0,0,0,22.64,10.31c10.21,3.31,17.85,4.12,24.85,5.1,3.93.54,3.56.58,43.15,9.19,80.7,17.56,83,17.61,86,15.32C507.45,799.33,418.65,658.39,396.36,649.74Z" transform="translate(-23.42 -96.12)"/><path class="cls-32" d="M244.19,619.45c-.37-1.3-5.88-1.32-10-.34A26.17,26.17,0,0,0,217,633.4c-1.66,3.59-.93,4.31-2.22,15.15C213,663.66,212.06,671.21,209,676s-6.79,7.35-6.3,12.08c.26,2.5,1.67,5.26,3.06,5.28s2.14-2.4,4.09-6.64c3-6.63,3.26-5.59,5.45-10.55,3.63-8.26,1.86-8.48,6.12-20.94,1.65-4.8,2.64-6.88,2.56-10.55s-1.21-5-.34-7.66c.74-2.26,2.7-3.83,6.63-7,3.28-2.62,4.92-3.94,7-4.94a21.42,21.42,0,0,0,5.45-3.57C244.3,620,244.23,619.57,244.19,619.45Z" transform="translate(-23.42 -96.12)"/><path class="cls-33" d="M219.68,638.17c1.29,1.24,1.48,3.14,1.7,5.45a18,18,0,0,1-1.36,8.51c-3.26,8.52-1.24,7.86-5.11,18-3.63,9.58-5.61,14.81-10.55,19.06-1.5,1.3-4,2.69-8.85,5.45-2.81,1.59-4.4,2.35-5.45,1.7s-.87-2.83-1-4.42c-.49-5.46-6.74-7.53-10.89-11.58-10-9.77-5.74-29-4.09-36.42a15.7,15.7,0,0,1,2.39-5.79c2.06-3,4.88-4.53,7.83-6.13,4.26-2.31,4.72-1.54,7.15-3.4,3.44-2.65,3.36-4.88,5.78-5.45a6.89,6.89,0,0,1,6.81,3.07c2.62,4.19-2.13,9.18,0,11.57C206.72,640.86,215.85,634.48,219.68,638.17Z" transform="translate(-23.42 -96.12)"/><path class="cls-34" d="M196.87,631.36c.11-1.87,1-3.81,8.51-9.87,11.71-9.44,17.56-14.16,23.83-13.62,8.42.74,16,8.43,15,11.58-.55,1.64-3.06.9-7.49,2.72-5,2.05-6,4.72-17,16C215,643,214,643.65,212.53,644,205.85,645.33,196.51,638,196.87,631.36Z" transform="translate(-23.42 -96.12)"/><ellipse class="cls-35" cx="168.35" cy="566.73" rx="22.47" ry="26.38"/><ellipse class="cls-36" cx="168.01" cy="565.88" rx="18.72" ry="20.77"/><path class="cls-4" d="M161.92,325.37c.25-.21,1.34,1,3.08,2.1a17.64,17.64,0,0,0,7.11,2.44c5.93.94,7.09-1.39,10,.11,3.2,1.66,4.21,5.75,4.59,7.28s.9,3.64,0,5.61-2.62,2.78-6,4.35c-2.92,1.35-4.94,2.25-7.32,1.57a6.06,6.06,0,0,1-2.89-1.7c-2-2.21-.43-4.4-1.53-8.68-.47-1.84-1.72-3.91-4.22-8.05C163,327.51,161.63,325.62,161.92,325.37Z" transform="translate(-23.42 -96.12)"/><path class="cls-37" d="M192.11,356c0-.36,2.65,0,6.63-.85,4.21-.94,7.86-3.25,15-7.83,3.2-2.06,6.48-4,9.71-6,2.71-1.69,3.77-2.35,4.08-2,.71.68-2.63,5.92-6.81,9.87a28.47,28.47,0,0,1-14,7.83C199.11,358.61,192.08,356.54,192.11,356Z" transform="translate(-23.42 -96.12)"/><circle class="cls-5" cx="191.55" cy="148.61" r="1.36"/><circle class="cls-5" cx="123.09" cy="179.6" r="1.36"/><path class="cls-38" d="M294.57,209.57c-.61-1.86,1.1-4.39,3.07-5.44,3.43-1.84,7.59.88,8.85,1.7,4,2.58,5.44,6.36,7.49,11.57a32.06,32.06,0,0,1,2.72,14.3c-.17,2.89-.47,6.1-1,6.13s-.82-3.34-2.72-8.85a47.7,47.7,0,0,0-2-5.11c-1.82-3.84-3.53-7.44-6.8-9.87C299.55,210.63,295.4,212.09,294.57,209.57Z" transform="translate(-23.42 -96.12)"/><path class="cls-39" d="M293.89,228.3c-1.67.88-2.31,3.26-2.38,4.76-.07,1.67.56,2.35,1.36,4.77a31.43,31.43,0,0,1,1.36,7.49c.38,3.66.34,7.49.34,7.49h0c-.34-7.35.41,6,.69,6.13.91.3,2.15-2.9,6.12-8.17,3.33-4.42,4.13-4.41,4.77-6.47,1.7-5.5-2.41-10.84-2.72-11.24C301.25,230.32,296.74,226.8,293.89,228.3Z" transform="translate(-23.42 -96.12)"/><path class="cls-40" d="M397.72,458.09c-5.62,5.24-10.3,9.61-15,18.72-9.1,17.72-13.22,43.72-13.61,46.3-5,32.49-2.4,29.39-7.15,75.91-1.79,17.52-4.17,37.61,5.11,45.28,1.14,1,6,4.94,9.19,3.4,2.61-1.25,2.93-5.57,3.06-7.15.94-11.58,4.79-22.8,5.79-34.38.36-4.22,2.51-14.62,6.81-35.4,4.94-23.93,5.94-25.24,6.46-33.71.66-10.55-.84-9.24-1-29.61-.14-16-.21-24,1.71-32.34,2.72-11.85,7.39-20.26,5.44-21.45C404.17,453.44,403,453.13,397.72,458.09Z" transform="translate(-23.42 -96.12)"/><path class="cls-41" d="M376.28,348.81c1.94.5-3.36,18.59,3.06,22.13,6.24,3.43,18.32-9.75,20.43-7.83,2.39,2.18-11.79,20.6-18.73,31-16.52,24.68-21.34,49.58-30.3,98.38-9.81,53.46-9.06,84.75-12.93,84.76-3.27,0-7.29-22.18-6.81-41.53.15-6.14.78-11.69,2-22.81.8-7,2.07-17,4.09-28.93,3-17.82,6.26-31.66,8.17-39.49C356.51,398.48,373,348,376.28,348.81Z" transform="translate(-23.42 -96.12)"/><path class="cls-41" d="M422.91,372.3c-1.56-1.39-10.33,5.31-16.68,11.57-5.86,5.79-16.21,17.68-29.27,56.85-5.25,15.73-11.5,37.55-9.87,38.13.78.28,3.12-4.55,7.14-12.94,24.88-51.82,25.71-54.38,30.64-63C415.72,384,424.66,373.85,422.91,372.3Z" transform="translate(-23.42 -96.12)"/><path class="cls-41" d="M362.11,653.15c-.26,0-1.1,6.73-1.42,13.53a149.61,149.61,0,0,0,.35,17.9c.56,7.5,1.39,12.82,1.78,15.47,1.74,12.05,1.8,22.12,1.88,34.3.22,33.91-8.33,67-9.2,66.73-.31-.09.27-5.51,1.42-16.37,2.43-23,4.17-29.13,5.19-40,1.56-16.65-1.28-15.81-1.65-43.75C360.09,673.56,362.55,653.21,362.11,653.15Z" transform="translate(-23.42 -96.12)"/><path class="cls-42" d="M55.26,489.74" transform="translate(-23.42 -96.12)"/><path class="cls-40" d="M190.74,404c.57,0-.25,17.32,1.37,40.85,3.37,49.21,15.22,93.84,10.21,95.32-1.06.31-1.92-1.6-7.49-3.75-4.6-1.77-5.83-1.17-7.15-2.38-3.45-3.17.66-11.32,2.72-20.77.92-4.16.74-11.68.34-26.55-.45-17-1-24.11-1.36-33.36C188.41,426.94,190.09,404,190.74,404Z" transform="translate(-23.42 -96.12)"/><path class="cls-41" d="M108.86,450.81a123.55,123.55,0,0,0,20.52,19.35,87.24,87.24,0,0,0,12,7.3,91,91,0,0,1,12.42,7.3l.7.5a1.33,1.33,0,0,0,.37.21.76.76,0,0,0-.29-.05,1.15,1.15,0,0,0-.45.06,1.6,1.6,0,0,0-.6.36,1.39,1.39,0,0,0-.31.5.65.65,0,0,0-.06.21s0,.07,0,.11v0s0,0,0,0a3.45,3.45,0,0,0-.15-.45,24.83,24.83,0,0,0-1.44-2.95c-1.13-2-2.38-4-3.66-5.94Q144,471.5,140,465.72c-2.65-3.85-5.47-7.58-8.39-11.25s-6-7.26-9.1-10.88l.27-.29a100.65,100.65,0,0,1,20.44,20.06,109.75,109.75,0,0,1,8,11.93c1.2,2.08,2.35,4.18,3.43,6.37a27.23,27.23,0,0,1,1.5,3.51,5.51,5.51,0,0,1,.27,1.26v.38l0,.22a2.23,2.23,0,0,1-.1.43,2,2,0,0,1-.43.68,1.77,1.77,0,0,1-.76.48,1.74,1.74,0,0,1-.67.09,2.26,2.26,0,0,1-.73-.15,5,5,0,0,1-1.16-.68l-.72-.57a87.91,87.91,0,0,0-11.74-7.57,88.71,88.71,0,0,1-11.93-8,118.45,118.45,0,0,1-19.61-20.68Z" transform="translate(-23.42 -96.12)"/><path class="cls-41" d="M163,386.88a210.47,210.47,0,0,1,7.19,34.58c1.37,11.76,1.39,23.6,1.46,35.34l.05,17.65c0,5.89-.22,11.76-.39,17.59s-.2,11.66-.14,17.51c0,2.93.17,5.85.24,8.79s.14,5.87.11,8.83l-.4,0c-.57-2.89-1-5.8-1.53-8.71s-.94-5.84-1.22-8.78c-.66-5.87-1-11.8-1.06-17.72-.12-11.84.89-23.48,1.14-35.24s.7-23.45-.25-35.1A220.61,220.61,0,0,0,162.64,387Z" transform="translate(-23.42 -96.12)"/><g class="cls-43"><path class="cls-41" d="M122,629.49a34.35,34.35,0,0,0-7.45.07,28.34,28.34,0,0,0-3.65.71,27.56,27.56,0,0,0-3.53,1.07,40.82,40.82,0,0,0-12.6,7.54,80.88,80.88,0,0,0-10.27,10.66c-3.15,3.84-6.08,7.85-8.94,11.94a232.28,232.28,0,0,0-15.86,25.28c-4.75,8.76-9,17.78-12.94,27A208.78,208.78,0,0,1,58.29,686c2.25-4.48,4.71-8.86,7.3-13.16s5.46-8.44,8.32-12.54c5.78-8.14,11.91-16.3,19.85-22.65,1-.82,2-1.51,3.06-2.26s2.15-1.35,3.23-2,2.26-1.17,3.42-1.68l1.77-.69a11.6,11.6,0,0,1,1.8-.62,29.57,29.57,0,0,1,3.69-.89,31.8,31.8,0,0,1,3.75-.49A29.9,29.9,0,0,1,122,629.49Z" transform="translate(-23.42 -96.12)"/></g><g class="cls-43"><path class="cls-41" d="M126.7,633.38a43,43,0,0,0-15.4,3.38c-1.22.53-2.42,1.1-3.57,1.72a28.26,28.26,0,0,0-3.3,2.15,52.31,52.31,0,0,0-6,5.29,116.38,116.38,0,0,0-10.33,12.34c-3.22,4.32-6.2,8.8-9,13.4a240.63,240.63,0,0,0-14.88,28.7,283.22,283.22,0,0,0-11.33,30.33,285.55,285.55,0,0,1,10.87-30.53,242.86,242.86,0,0,1,14.48-29c2.75-4.66,5.69-9.23,8.86-13.63a119,119,0,0,1,10.26-12.64,54.12,54.12,0,0,1,6.06-5.55A30.13,30.13,0,0,1,106.9,637c1.21-.68,2.44-1.29,3.7-1.85a44.66,44.66,0,0,1,16-3.78Z" transform="translate(-23.42 -96.12)"/></g><g class="cls-43"><path class="cls-41" d="M110.74,616.38q-3.76-.57-7.56-.86c-2.52-.18-5.07-.26-7.59-.31a56.53,56.53,0,0,0-15,1.44,28.94,28.94,0,0,0-3.52,1.15A13.21,13.21,0,0,0,74,619.51a36.59,36.59,0,0,0-5.18,5.29c-3.28,3.85-6.47,7.81-9.69,11.74L49.42,648.3c-3.23,3.92-6.48,7.83-9.44,11.89a35.77,35.77,0,0,0-3.71,6.47,65.45,65.45,0,0,0-2.71,7.06,74.44,74.44,0,0,0-3.16,14.83,64.93,64.93,0,0,1,4.66-22.4,35.32,35.32,0,0,1,3.64-6.84c2.87-4.28,6.1-8.21,9.25-12.2l9.62-11.84c3.25-3.91,6.44-7.85,9.8-11.71A38,38,0,0,1,73,618.1a14.47,14.47,0,0,1,3.57-1.86,30.92,30.92,0,0,1,3.75-1.1,53.67,53.67,0,0,1,15.36-.9A91.35,91.35,0,0,1,110.74,616.38Z" transform="translate(-23.42 -96.12)"/></g><path class="cls-44" d="M342.06,284.81" transform="translate(-23.42 -96.12)"/><g class="cls-43"><path class="cls-41" d="M24,676.36a29.51,29.51,0,0,1,.88-8.38,31.4,31.4,0,0,1,3.07-7.76,38.82,38.82,0,0,1,11-12.18A38.26,38.26,0,0,0,28.8,660.68a29.58,29.58,0,0,0-2.49,7.62,27.48,27.48,0,0,0-.35,7.94Z" transform="translate(-23.42 -96.12)"/></g><g class="cls-43"><path class="cls-41" d="M26.58,636.75a43.64,43.64,0,0,1,6.67-8.88,42.22,42.22,0,0,1,8.68-7,50.55,50.55,0,0,1,5-2.54c1.7-.76,3.41-1.44,5.12-2.14l5.09-2.13,5.06-2.22a68.32,68.32,0,0,1,21.43-5.78,61.15,61.15,0,0,1,22.06,2.06l0,.2a100.79,100.79,0,0,0-21.82-.13,84.82,84.82,0,0,0-10.72,1.72c-3.53.82-7,1.84-10.52,3a107.23,107.23,0,0,0-10.29,3.91,58.69,58.69,0,0,0-9.44,5.49,80.66,80.66,0,0,0-16.09,14.61Z" transform="translate(-23.42 -96.12)"/></g><path class="cls-40" d="M32,611.08c.81.64,3.78-2.28,6.4-4.22,8.07-6,17.32-7.61,25.16-9,3-.53,5.7-.79,5.7-.79,4-.28,5.59-.17,5.61-.37,0-.5-12.44-.43-29.15-3.34-5-.87-12.51-2.38-14.12.45-.44.8-.42,1.91-.39,3.58,0,2.45.63,2.89.9,5.93a23.89,23.89,0,0,1,.09,4.19C32,609.91,31.6,610.77,32,611.08Z" transform="translate(-23.42 -96.12)"/><path class="cls-41" d="M76.71,480.4c-.85,1.11.78,4.38,3.51,7.41a26.81,26.81,0,0,0,8.17,6.13c14.09,6.31,37.51,10.16,51.32,12.51,4.06.69,8.77,1.5,8.82,1.25s-6.5-1.74-14.89-4c-19.51-5.25-17.17-6.33-37.33-12.83-4.16-1.34-7-2.17-9.7-4.85-3.24-3.19-5.7-8.36-7.18-7.85a17.92,17.92,0,0,0-1.71,1.36C77.09,480.06,76.77,480.32,76.71,480.4Z" transform="translate(-23.42 -96.12)"/><path class="cls-41" d="M74.74,493.66c.73-.55,2.78,1.51,5.62,3.32,1.37.87,3,1.71,8.43,3.57,7.55,2.58,14.77,4.48,18.64,5.62,12.5,3.68,23.84,9.4,23.48,10.47-.2.62-4.4-.25-6.89-.77-4.85-1-7.88-2.22-14.3-4.59-6.84-2.54-10.27-3.8-12.25-4.34A115.58,115.58,0,0,0,85,504.13c-5-.73-9.18-.86-10-3.07-.24-.66.08-.84,0-3.06C74.89,495.05,74.28,494,74.74,493.66Z" transform="translate(-23.42 -96.12)"/><path class="cls-41" d="M405.21,568.21a123.26,123.26,0,0,0,12.43,6.64c10.31,4.79,15.45,5.48,25,10a109.41,109.41,0,0,1,14,8" transform="translate(-23.42 -96.12)"/><path class="cls-40" d="M408.62,556.64c1.39,1.94,5.53.84,10.38.17,3.06-.42,9.64-.11,22.81.51,16.79.79,28.3,3,36.08-1.53.75-.43,3.74-2.24,3.58-2.56s-2.74,1-5.62,1.71a26.06,26.06,0,0,1-11.06,0c-8.47-1.31-10.74.31-19.07-.34-19.47-1.54-26.79-12-33.46-7.51C408.8,549.4,407.16,554.61,408.62,556.64Z" transform="translate(-23.42 -96.12)"/><path class="cls-40" d="M404.62,656.55c.35,3.79,4.66,5.85,8.42,8.43.48.33,4.49,4.47,12.51,12.76,16.86,17.43,44.17,51.9,46,50.56.74-.55-2.72-6.32-5.36-10.73-6.16-10.27-12.57-18-20.17-26.29-16.18-17.61-16.43-13.51-26.81-26.3-5-6.21-10.26-13.67-13-12.51C404.92,653,404.48,655.06,404.62,656.55Z" transform="translate(-23.42 -96.12)"/><path class="cls-41" d="M430.66,693.06c1.92-.81,14.84,25.65,18.89,34,16.55,33.91,26.3,61.58,25.79,61.79s-7.15-24.54-24.77-50a129.74,129.74,0,0,1-10.72-17.62C433.2,707.76,429.31,693.64,430.66,693.06Z" transform="translate(-23.42 -96.12)"/><path class="cls-41" d="M400.28,668.3a59.83,59.83,0,0,1,7.15,9.19,63.35,63.35,0,0,1,7.91,19.4c5.59,22.38,11.17,54.07,11.49,55.92" transform="translate(-23.42 -96.12)"/><path class="cls-41" d="M400.39,668.19A59.41,59.41,0,0,1,413,686.82a78.7,78.7,0,0,1,3.51,10.77c1,3.63,1.9,7.26,2.79,10.91,1.76,7.29,3.65,14.55,4.88,22,.62,3.7,1.2,7.4,1.68,11.12s.87,7.46,1.12,11.21l-.3.05c-2.12-7.22-3.81-14.51-5.45-21.8s-2.77-14.69-4.28-22q-1.09-5.49-2.33-11a77.69,77.69,0,0,0-3-10.69,58.42,58.42,0,0,0-11.43-19Z" transform="translate(-23.42 -96.12)"/><g class="cls-45"><path class="cls-46" d="M274.49,631a128,128,0,0,1,12.58,4.2c2.05.8,4.11,1.67,6.12,2.58l6,2.72c4,1.74,8,3.52,12.06,5.15l6.07,2.49a34.66,34.66,0,0,0,5.89,2,7.29,7.29,0,0,0,2.57.11,9.81,9.81,0,0,0,2.63-.94,9,9,0,0,1,4.05-.87,7.14,7.14,0,0,1,2.23.45,6.9,6.9,0,0,1,1.87,1.14,9.68,9.68,0,0,0,2.35,1.56,3.29,3.29,0,0,0,1.1.34c.47.07,1,.13,1.55.19,2.17.21,4.38.45,6.56.73,1.1.13,2.19.27,3.31.43a15.51,15.51,0,0,1,1.82.35,12,12,0,0,1,1.73.72,19.93,19.93,0,0,1,2.9,1.88,3.08,3.08,0,0,0,.49.3.42.42,0,0,0,.25.06.41.41,0,0,0,.25-.08,1.79,1.79,0,0,0,.34-.39,17.55,17.55,0,0,0,1.32-2.81c.42-1,.81-2,1.28-3.06.95-2,1.91-4,2.91-6-.59,2.13-1.22,4.24-1.86,6.33l-.86,3.18a18.86,18.86,0,0,1-1.1,3.31,3.11,3.11,0,0,1-.66.92,2.36,2.36,0,0,1-1.2.65,2.64,2.64,0,0,1-1.37,0,4.87,4.87,0,0,1-1-.44,18.22,18.22,0,0,0-2.78-1.45,13.92,13.92,0,0,0-1.36-.43,11.93,11.93,0,0,0-1.43-.16l-3.26-.19c-2.19-.11-4.37-.21-6.58-.35-.56,0-1.12-.07-1.74-.14a7.19,7.19,0,0,1-2.06-.53,12.28,12.28,0,0,1-1.74-.87c-.55-.34-1.08-.74-1.49-1a3.64,3.64,0,0,0-.94-.56,3.09,3.09,0,0,0-1-.17,4.91,4.91,0,0,0-2.32.59,13.36,13.36,0,0,1-3.56,1.26,10.86,10.86,0,0,1-4-.09,38.59,38.59,0,0,1-6.59-2.25c-2-.87-4.08-1.72-6.09-2.64-4-1.85-8-3.73-11.93-5.83-1.95-1-3.9-2.09-5.81-3.18S288.2,638,286.25,637C282.39,634.93,278.44,633,274.49,631Z" transform="translate(-23.42 -96.12)"/></g><path class="cls-32" d="M175.18,535.15a21.21,21.21,0,0,0,3.44,4.66,21.82,21.82,0,0,0,4.47,3.55c.82.49,1.68,1,2.52,1.41a13.49,13.49,0,0,0,2.38,1,3.7,3.7,0,0,0,2.32-.07,8.41,8.41,0,0,0,2.4-1.4l.16.11A5.22,5.22,0,0,1,191,547a4.64,4.64,0,0,1-3.37.78,7.24,7.24,0,0,1-3-1.29c-.85-.59-1.61-1.18-2.42-1.79a23.65,23.65,0,0,1-4.32-4.22,20.39,20.39,0,0,1-2.87-5.23Z" transform="translate(-23.42 -96.12)"/><path class="cls-47" d="M118.57,552.81c.3-.31,3.75,2.47,5.62,4.08,7.44,6.44,11,12.88,13.88,18.2.71,1.29,1,2,.93,2.06-.27.18-3.26-3.92-5.62-7C125,559.31,118.15,553.25,118.57,552.81Z" transform="translate(-23.42 -96.12)"/><path class="cls-48" d="M109.89,575.29A50.83,50.83,0,0,1,117,580.4c4.72,4,6.27,6.82,10.56,11.06a62.08,62.08,0,0,0,9.7,7.83" transform="translate(-23.42 -96.12)"/><path class="cls-49" d="M206.73,591.5a36.35,36.35,0,0,0-4.76,1.19,37.63,37.63,0,0,0-15,9.36" transform="translate(-23.42 -96.12)"/><path class="cls-49" d="M130.15,539.45c-.23-.47,1.19-1.78,2.28-2.5a29.28,29.28,0,0,0,3-1.72,11.44,11.44,0,0,0,1.35-1.23c1.68-1.82,1.85-3.33,2.28-3.32.76,0,1,4.68,1.47,7.92,1.6,10,7.9,15.93,7.32,16.34s-4.35-2.78-6.47-7.66c-1.95-4.5-1-7.19-3.07-8.51C135.45,537,130.56,540.28,130.15,539.45Z" transform="translate(-23.42 -96.12)"/><path class="cls-32" d="M117.21,558.76c.49.64,1.24,1.6,2.22,2.72,1.31,1.51,2.35,2.53,2.72,2.89a46.93,46.93,0,0,1,5.45,6.81" transform="translate(-23.42 -96.12)"/><path class="cls-32" d="M117.25,558.73c.92,1,1.78,2,2.74,3s1.89,1.89,2.88,2.83a21.48,21.48,0,0,1,2.75,3.05,19.55,19.55,0,0,1,2,3.57l-.09.05c-1-1-1.85-2-2.72-3s-1.65-2.11-2.53-3.11-1.8-2-2.69-3.06-1.62-2.17-2.44-3.25Z" transform="translate(-23.42 -96.12)"/><path class="cls-32" d="M129.13,601.23a39.49,39.49,0,0,0,7,8.14,33.81,33.81,0,0,0,9.06,5.63,71.82,71.82,0,0,1,9.64,4.94,54,54,0,0,1,8.53,6.66,72.4,72.4,0,0,0-8.83-6.17c-1.55-.9-3.12-1.77-4.73-2.54s-3.27-1.47-4.92-2.21a33,33,0,0,1-9.13-5.88,34,34,0,0,1-3.66-4A37.56,37.56,0,0,1,129.13,601.23Z" transform="translate(-23.42 -96.12)"/><path class="cls-3" d="M308.19,536" transform="translate(-23.42 -96.12)"/><circle class="cls-50" cx="119.07" cy="182.37" r="0.89"/><path class="cls-21" d="M179.34,136.89c-.84-.68,2.35-8.86,9.53-14.21a31.65,31.65,0,0,1,15.32-5.62,30.38,30.38,0,0,1,12.26,1.54s10.08,3,15.32,9.44c.5.62.82,1.45,2,2.9.21.24.29.38.25.42-.19.24-3.68-2.47-7.91-5.1a45.92,45.92,0,0,0-6.89-3.83,32.13,32.13,0,0,0-12.26-2.3,33.77,33.77,0,0,0-11.74,1.53c-10.13,3.41-16.86,12.5-15.89,13.79.77,1,5.88-3.3,17.93-6.64,8.15-2.26,12-2,13.79-1.79,3.69.39,6.24,1.47,11.23,3.58,6.59,2.78,11.6,5.9,11.49,6.12s-3.77-1.9-10-3.83a62.56,62.56,0,0,0-8.25-2,48.14,48.14,0,0,0-15.49.24c-5,.86-6.22,2.76-10.69,2.84a16.45,16.45,0,0,0-4.81.51C181.16,135.44,179.78,137.25,179.34,136.89Z" transform="translate(-23.42 -96.12)"/><path class="cls-23" d="M133.32,163.9a39.47,39.47,0,0,1-2-22.93,35.35,35.35,0,0,1,4.32-10.74,54,54,0,0,1,7.07-9,83.72,83.72,0,0,1,8.27-7.81,73.91,73.91,0,0,1,9.34-6.46,81.83,81.83,0,0,1,20.89-8.52,81.94,81.94,0,0,0-20.51,9.16,73.58,73.58,0,0,0-9,6.68,82.26,82.26,0,0,0-7.88,8,52,52,0,0,0-6.56,8.94,33.17,33.17,0,0,0-3.74,10.25,36.87,36.87,0,0,0,2.58,21.34Z" transform="translate(-23.42 -96.12)"/></svg>