<svg id="Layer_1" data-name="Layer 1" xmlns="http://www.w3.org/2000/svg" viewBox="0 0 251.21 549.36"><defs><style>.cls-1{fill:#e89f81;}.cls-2,.cls-31{fill:#29466a;}.cls-3,.cls-32{fill:#22405e;}.cls-3{stroke:#22405e;opacity:0.71;}.cls-14,.cls-23,.cls-3{stroke-miterlimit:10;}.cls-4{fill:#e2d7ba;}.cls-5{fill:#cd8b74;}.cls-25,.cls-5{opacity:0.68;}.cls-6{fill:#f5ab87;}.cls-7{fill:#e19d81;opacity:0.58;}.cls-8{fill:#241d16;}.cls-9{fill:#d38363;}.cls-10{fill:#453428;}.cls-11{fill:#422f22;}.cls-12,.cls-13{fill:#db9579;}.cls-12,.cls-15{opacity:0.63;}.cls-13{opacity:0.67;}.cls-14{fill:none;stroke:#241d16;}.cls-15,.cls-16{fill:#e7dbcb;}.cls-17{fill:#cb7a5e;}.cls-18{fill:#fff;opacity:0.12;}.cls-19,.cls-20,.cls-21{fill:#cec3aa;}.cls-20{opacity:0.74;}.cls-21{opacity:0.6;}.cls-22{fill:#cec7b6;}.cls-23,.cls-24,.cls-25,.cls-28{fill:#d08d75;}.cls-23{stroke:#d08d75;opacity:0.4;}.cls-26{opacity:0.69;}.cls-27{fill:#bc7f6c;}.cls-28{opacity:0.51;}.cls-29{opacity:0.55;}.cls-30{fill:#213b56;}.cls-31{opacity:0.3;}</style></defs><title>josipsam</title><path class="cls-1" d="M364.54,449.21c6.08,19.56,5.24,37.38,3.57,73-.47,10-1.39,21.94-9.7,32.17a32.14,32.14,0,0,1-13.79,10.21c-13,4.62-29.57-.54-31.15-7.66-.71-3.18,1.94-5.12,5.62-11.23,0,0,4.19-7,8.68-25.54,7.16-29.58,1.16-112.72,11.74-115.4C345.84,403.18,358.61,430.14,364.54,449.21Z" transform="translate(-313.36 -213.64)"/><path class="cls-2" d="M483.22,700.48c2.62-2,5.92-4.49,10-8a202,202,0,0,0,15-14.12l-.15-.08s-1.85-1.07-3.77-2.06c-10.51-5.4-19.5-8.1-19.06-11.23.06-.49.35-.94,4.42-3.75,3.16-2.18,2.88-2.45,7.83-5.11,4.5-2.41,5.07-1.55,11.07-4,7-2.84,7-4.31,14-6.89,3.23-1.18,4-1.14,5.87-2.3,3.21-2,4.09-3.92,7.49-7.57,2.49-2.68,2.76-2.43,7.15-6.47,0,0,4.36-4,9.36-9.45,11.08-12,11.74-45,11.74-45,.79-39.31.83-58.89-5.2-87.83-4.71-22.61-8.48-39.82-19.31-47-3.35-2.21-11.67-6.3-15-15-1-2.59-1.44-5.35-3.75-9.2-1.11-1.84-4.5-7.48-8.17-8.85-10.19-3.79-18.48,26-48,42.22-4.86,2.66-12.26,6.05-13.28,12.42-.57,3.6,1.29,5.68,7,14.81,12.17,19.49,8,16.85,15.83,28.08,3.68,5.27,5.74,7.47,5.11,10.56-.83,4-5.43,5.62-13.28,10.21-.61.36-5.72,3.9-15.95,11-7.09,4.91-16.64,11.53-25.92,21.18-8.7,9-7.13,10.32-18.12,21.73a91.4,91.4,0,0,1-18,15c-5.39,3.37-5.92,3.3-10.21,5.44-10.42,5.22-19.81,16.62-22.47,28.94-1.8,8.37-.05,15.11,2.39,24.51,1.79,6.93,3.65,15.08,9.53,22.81a47.93,47.93,0,0,0,17.7,14c31.42,15.57,56.44,33,57.87,33.7.27.14,1.71.87,3.61,1.94.46.25.82.46,1.06.6C455.11,720.7,470.14,710.32,483.22,700.48Z" transform="translate(-313.36 -213.64)"/><path class="cls-2" d="M523.47,762.58c-2.36-.14-4.72-.36-7.06-.67-1.29-.16-2.57-.41-3.84-.69a15.34,15.34,0,0,0,7.11,1.77A22.89,22.89,0,0,0,523.47,762.58Z" transform="translate(-313.36 -213.64)"/><path class="cls-3" d="M417,574.65c1.45,0,2-3.48,3.58-6.64,3.12-6.18,9-8.51,14.12-11.23,17.92-9.45,14-16.45,29.79-23.15,4.09-1.73,10.9-4,17.19-10.21,2.35-2.31,3.84-4.37,4.26-7,.62-3.91-1.49-6.93-4.43-11.57-6.7-10.62-10.06-15.93-10-19.58,0-3.83,2.12-5.08,10.55-15,15.95-18.71,13.32-20,22-27.06,4.95-4.06,9-6.27,13.11-12.43,2.34-3.52,5.16-7.91,4.08-12.76s-6-9.93-10.89-10.05c-9.8-.22-9.16,19.61-29.28,38.3-6,5.61-13.12,10.35-22.81,21.79-6.87,8.12-8.1,11.4-7.83,14.64.41,4.79,3.86,6.57,13.28,19.4,5.73,7.81,5.95,9.19,6,10.22.06,5.77-6.36,8.75-20.6,18.89-3.34,2.38-12.1,10.61-29.62,27.06-1.75,1.65-5.52,5.29-5.44,10.05C413.94,571.38,415.55,574.67,417,574.65Z" transform="translate(-313.36 -213.64)"/><path class="cls-4" d="M364.71,334.48c-3.56-.3-2.14.6-15,1.7-9,.78-11.81.69-16,2.73-2.14,1-6.48,3.22-8.85,7.83-1.72,3.33-1.44,6.07-1.48,11.13-.06,9.56-1.13,13.08-1.25,17.46-.21,7.91,2.69,17.53,22.81,55.49,9.61,18.14,11.85,22.07,15,30,2.56,6.46,3.89,10.88,7.49,19.4,4.23,10,7.11,15.11,10.21,21.45,10.24,21,8.21,25.42,18.72,48,1.09,2.32,12.21,26,17,24.51,1.71-.52,1.37-3.84,5.1-9.19a32.65,32.65,0,0,1,6.13-6.47c12.36-10.61,12.47-12.81,21.79-19.74,13.4-10,23.68-17.62,31.66-20.09a5.46,5.46,0,0,0,3.4-2.38c1.95-3.75-3.38-10-5.45-12.6-6.57-8.12-15.7-22.36-17.36-30.63-3.75-18.67,26.66-26,28.6-49,2.21-26.21-35-44-28.26-57.19,3.83-7.43,19.55-9.22,28.26-10.21,12.68-1.44,22.12.89,24.85-4.08,1-1.88.46-4.43-.68-9.54A46.34,46.34,0,0,0,506,328.36c-1.5-2.52-8.74-14.05-22.13-18.39-1.48-.48,0,.1-19.74-2.72-6.75-1-8.84-1.31-12.94-1.7-9.6-.92-9.36-.36-13.27-1-12.72-2.17-19.21-9.63-21.57-7.42-.85.8-.49,2.2.46,6.9.41,2,2.25,11.16,2.72,14.81.63,4.84-.64,4.88-4.08,23.49-1.8,9.72-2,10.9-3.41,11.92-4.76,3.36-14-1.79-24.17-7.49C374.27,339.14,372.63,335.16,364.71,334.48Z" transform="translate(-313.36 -213.64)"/><path class="cls-1" d="M362.49,330.74c-.22,1.43.22,3.46,1,7.26a51.5,51.5,0,0,0,2.29,7.8c1.74,4.5,2.32,4,4.47,9.19,1.13,2.74,1.67,3.88,3.06,6.64,1.16,2.3,1.21,2.2,2.05,4,1.47,3.11,2.58,6.15,2.8,6.77a15.19,15.19,0,0,0,.9,2.42c1.91,3,7,2.79,8.68,2.94,11.12,1,20.38-9.57,22.85-12.39,7.43-8.47,9.25-18.88,12.89-39.7,0,0,3.93-22.44-2.17-24.76-.9-.35-2.46-.35-3.57-1.66-1.25-1.48-.88-3.37-.77-6,.17-3.89.39-8.82-1.66-10.73s-6.54-1.07-9.44.51c-10.36,5.65-2.67,22.33-12.51,33.58C383.78,327.55,363.64,323.29,362.49,330.74Z" transform="translate(-313.36 -213.64)"/><path class="cls-5" d="M408.8,310c-2,5.27-4.84,12.59-8.26,21.42-2.87,7.38-7.84,14.13-9.07,21.95-.31,2-.93,7.21-4.34,8.94-1.23.63-2.31.53-3.19,1.66-1.31,1.67-.1,3.32-1.28,5.74-.82,1.69-2.43,3.24-3.44,2.94-.61-.18-.77-.95-1.27-2.25s-.48-.78-2.56-4.77c-3.57-6.84-4-9.13-7.41-15.45a29.75,29.75,0,0,1-2.68-5.87c-.55-1.76-.5-2.26-1.22-4.71-1.18-4-1.8-4.28-1.59-5.12.72-2.89,8.77-2.67,15.07-3.7,5.31-.88,12.67-3.19,21.06-9.7" transform="translate(-313.36 -213.64)"/><path class="cls-6" d="M329.13,245.29c-3,3.08-3.39,7.42-3.74,11.58-.31,3.55.21,5.92,2.89,17.36,1.76,7.54,2.65,11.31,2.72,11.57,3.27,11.32,4.9,17,9,21.45a30.79,30.79,0,0,1,5.28,7.15,37.65,37.65,0,0,1,2,4.93c1.6,4.12,4,10.4,9.37,15a16.11,16.11,0,0,0,6.29,3.58,14.88,14.88,0,0,0,6.3.17c13.51-2.21,24.51-10.39,24.51-10.39,6.65-4.94,13.81-10.26,15.15-18.55a59.13,59.13,0,0,0,.34-6.64c.22-8.57.34-12.86-.37-14.87-.11-.29-.55-1.5-.14-1.81s2,1.44,3.92,1.53c.92.05,2-.3,3.91-2,2.35-2.09,5-4.4,6.3-8.51.93-2.87.68-5.26.17-10-.64-6-1-9-3.24-11.07C418,254,415,252.54,412,253.29c-3.37.86-5.11,4.18-5.95,5.79-2.08,4-1.15,6.47-2.73,7.15-1.89.82-5.44-1.85-7.32-4.94-2.43-4-.63-6.45-3.23-9.87-2-2.62-3.53-1.81-5.45-4.09-3.66-4.34.29-9.29-2.21-14-3.06-5.72-14.13-7.89-21.11-4.26-5.39,2.81-3.72,6.7-9,10.55C345.89,246.32,335.58,238.72,329.13,245.29Z" transform="translate(-313.36 -213.64)"/><path class="cls-7" d="M341.56,244.44c1.47,1.73.6,4.76-.51,8.68-1.5,5.25-3.3,6.49-4.34,10.47-.66,2.48-.7,4.85.25,10.72,1,6.13,3,15.69,9,31.47a92,92,0,0,0,3.81,9.13c2.8,5.65,5.06,10.21,9.44,14.3,5.73,5.33,12.17,7.15,11.7,8.56-.17.51-1.12.61-2.5.74a14.44,14.44,0,0,1-8.05-1.9,21.71,21.71,0,0,1-5-3.64c-3.5-3.37-5.18-7.11-6.75-10.67-1.47-3.36-1.29-4-2.89-7a52.34,52.34,0,0,0-3.57-5.74c-2.4-3.43-4.27-5.56-5.07-6.53-1.33-1.65-2.46-3.57-6.29-18.88-1.65-6.56-.45-2.23-3.58-15.7-1.19-5.11-2.07-8.8-1.54-13.8.31-2.84.58-5.06,2.18-7.14C331.27,243,339.18,241.65,341.56,244.44Z" transform="translate(-313.36 -213.64)"/><path class="cls-8" d="M362.62,303.16c-.16-.12.07-.66.33-1.26a5.32,5.32,0,0,1,.95-1.54,5.87,5.87,0,0,1,3.27-1.73c.43-.1.74-.18.81-.06s-.53.75-2.17,2.17C363.37,302.84,362.8,303.31,362.62,303.16Z" transform="translate(-313.36 -213.64)"/><path class="cls-8" d="M357.64,306c.12-.26-.54-1-1.4-1.15s-1.54.24-1.53.51C354.72,305.83,357.43,306.41,357.64,306Z" transform="translate(-313.36 -213.64)"/><path class="cls-9" d="M356.24,317.33c0-.65.78-1.42,2.3-2.93,2.24-2.24,2.87-2.3,3.19-2.3a12.87,12.87,0,0,1,2.29.77,2.49,2.49,0,0,0,1.28-.26c.41-.27.32-.65.64-1.28a3.56,3.56,0,0,1,1.4-1.4,5.07,5.07,0,0,1,2.68-.51l3.45-.13a27.05,27.05,0,0,0,5.62-.51c.56-.17,1-.34,1.19-.14.45.45-.59,2.19-1.45,3.59a24.92,24.92,0,0,1-3.19,4.47,18.67,18.67,0,0,1-6.89,5.1c-1.83.74-4,1.63-6.51.9a9.59,9.59,0,0,1-3.45-2.05C357.34,319.48,356.2,318.54,356.24,317.33Z" transform="translate(-313.36 -213.64)"/><path class="cls-10" d="M318.24,244.44c.14,2.95,1.86,6.75,4.76,7.83,1.32.49,2.74.19,5.54-.43a58.12,58.12,0,0,0,8.68-2.8c3.51-1.32,6.18-2.09,8.68-2.81,9.86-2.86,11.6-1.77,14.55-4.34s1.83-4.07,5.11-6.64c1-.82,4.95-3.9,9.87-2.89,3.2.65,7,3.09,7.49,6.29.48,3-2.5,4.4-1.7,6.81.74,2.26,3.52,1.71,7.32,4.6a21.82,21.82,0,0,1,6.28,8.32c2,4.31,1.5,6.53,3.93,8.19,1.5,1,3.77,1.59,4.93.68.83-.65.54-1.6,1-4,.38-2.14.83-4.73,2.45-6.51,2.06-2.27,4.46-1.49,5.1-3.24.59-1.58-.89-3.13-2.21-5.45-2.39-4.22-1.78-6.71-2.89-11.23a32.64,32.64,0,0,0-7.66-14c-7.16-7.4-16.79-8.59-20.26-9a69.36,69.36,0,0,0-9.7,0c-11.8.41-17.7.62-22.64,2.38-5.42,1.95-9.17,5.27-16.68,11.92C322.45,234.92,318,239,318.24,244.44Z" transform="translate(-313.36 -213.64)"/><path class="cls-11" d="M359.94,275.33a.68.68,0,0,1-.2-.07,4.65,4.65,0,0,1-1.72-2c-.9-1.45-1.15-1.26-1.14-1.66,0-.77,1-1.35,3.83-3.27l.44-.3.7-.51a28.76,28.76,0,0,1,9.58-4.09,22.94,22.94,0,0,1,13.79,2,18.53,18.53,0,0,0-4.6-.51c-.81,0-1.48.08-1.91.13l-1.79.51c-2.6.76-4.94,1.48-5.49,1.66-1.47.49-4.17,1.75-8,5.62C362.2,274.19,361,275.61,359.94,275.33Z" transform="translate(-313.36 -213.64)"/><path class="cls-11" d="M345,275.33a12.17,12.17,0,0,1,1.28,1.66c1.51,2.09,1.61,2.33,1.53,2.56-.27.8-2.55.65-4.08.63-7-.05-10.77,2.7-11.24,1.79s3.83-4,7-5.61C343.19,274.49,344.46,275,345,275.33Z" transform="translate(-313.36 -213.64)"/><path class="cls-12" d="M350.75,288.87c1-.78.75-2.41.91-2.42s2,5.48.19,11.62a19.38,19.38,0,0,1-1.63,3.92,7.84,7.84,0,0,1-3.08,3.27,11.15,11.15,0,0,1-2.26.84c-2.06.62-3.08.93-4.22.64a5.38,5.38,0,0,1-2.42-1.66c-1.06-1-2.51-2.38-2.81-3.83-1.06-5,11.35-11.95,14-12A2.1,2.1,0,0,0,350.75,288.87Z" transform="translate(-313.36 -213.64)"/><path class="cls-13" d="M359.94,279.42a9.2,9.2,0,0,0-.64,3.6c.21,3.71,3,6.19,4.09,7.12,2,1.77,4.08,2.52,6.63,3.45a14.57,14.57,0,0,0,3.2.89,13.74,13.74,0,0,0,6.25-.64c1.57-.53,4.91-1.65,6.77-4.85a11.14,11.14,0,0,0,1.27-5.23c.19-2.41.55-6.94-1.4-9.58C381.38,267.78,362.89,272.3,359.94,279.42Z" transform="translate(-313.36 -213.64)"/><path class="cls-8" d="M358.75,278.14c-.66,4.7,2.44,8.45,3.06,9.19a14.12,14.12,0,0,0,8.51,4.77l.52.09c.7.11,7.13,1,11.91-3.15a14.59,14.59,0,0,0,4.25-7.32,18.48,18.48,0,0,0-.12-11.49c-.79-2.2-1.37-3.82-2.92-5-4.59-3.44-12.79,1.1-15.34,2.51C364.59,270,359.49,272.81,358.75,278.14Z" transform="translate(-313.36 -213.64)"/><path class="cls-8" d="M327.94,280.87a17.15,17.15,0,0,1,7-2.9,21,21,0,0,1,8.51.17c2.52.44,3.81.67,5.11,1.7a9,9,0,0,1,2.89,5.28,15.16,15.16,0,0,1-1.87,10.72,13.67,13.67,0,0,1-7.49,6.64,13.47,13.47,0,0,1-10.22-1l-.19-.1a16.53,16.53,0,0,1-7.72-8.28,9.86,9.86,0,0,1-.94-5.75C323.64,284,326.31,282.06,327.94,280.87Z" transform="translate(-313.36 -213.64)"/><path class="cls-14" d="M345.3,281a24.54,24.54,0,0,1,6.64-2.9,24.8,24.8,0,0,1,9.36-.68" transform="translate(-313.36 -213.64)"/><path class="cls-14" d="M384.62,266.87l18.55-8.81s0-.68,1.19-1.19a19.57,19.57,0,0,1,3.58-.86" transform="translate(-313.36 -213.64)"/><path class="cls-1" d="M455.43,374.65a12.55,12.55,0,0,1,1.53,4.6,9.36,9.36,0,0,1-.77,5.11c-1.44,2.81-4.14,3.54-6.12,4.85-4.75,3.12-5.42,9.53-6.13,13-2.48,12.1-9.81,14.67-27.83,47.23a197,197,0,0,1-11.23,17.36,46.19,46.19,0,0,1-7.41,8.68c-4.54,4-6.1,3.23-8.17,6.39-2.22,3.39-1.81,5.92-4.34,12.51a75,75,0,0,1-3.32,7.15c-4.61,9.45-9.27,19-8.93,29.87,0,.58,0-.16,1.78,11.49.29,1.89,1.22,8,3.07,15.32,1.07,4.25,1.89,6.71,3.83,8.42.47.42,1.7,1.41,3.32,3.07.27.28,1.22,1.26,2.29,2.55,3.76,4.52,4.77,7.66,8.17,11,1.65,1.61,5.37,5.23,8.17,4.08a4.89,4.89,0,0,0,2.81-4.85c-.44-3.37-5.56-5.23-5.36-5.61s6.47,3.59,8.68,1.78c.41-.34.75-.93,0-7.4-.79-6.81-1.43-8.48-2.81-9.7a14.78,14.78,0,0,0-2.77-1.66c-2.94-1.55-4-1.58-5.4-2.43-2-1.24-2.81-3.16-3.83-5.62-.9-2.18-4.8-11.6-.76-15.31,1.81-1.67,5.07-2,6.38-.77.92.89.51,2.24.26,5.62-.39,5-.63,8.15.76,11,.27.54,2.38,4.69,6.13,4.85a6.5,6.5,0,0,0,5.36-2.81c.78-1.14.92-2.18.77-8.43-.1-3.74-.19-5.19-.26-8.17-.09-3.86-.13-5.8,0-7.66.39-5.39,1.5-5.29,1.79-9.44.35-5-1-9.37-2-13-1.5-5-2.43-5.48-2.05-7.4.73-3.62,4.71-5.23,10-8.17,7.73-4.33,4.61-3.92,15.32-10.47,6.9-4.22,9.63-5.27,26.3-13.53,20.8-10.31,23.78-12.27,27.06-16.34,3-3.71,3.27-5.53,8.68-12.26s7.4-7.68,10-12.51c3.49-6.58,1.57-8,4.85-12.51,4.06-5.55,7.54-4.06,11.49-9.7.67-1,4.79-6.84,3.32-13-1-4-3.34-4.22-4.85-8.68-1.6-4.71.19-7,.25-12.26a28.27,28.27,0,0,0-8.68-20.17c-6.16-5.81-13.55-6.76-16.59-7.15-8.85-1.13-15.6,1.68-20.17,3.58-4.26,1.77-11.29,4.79-16.85,12C459.51,361.07,453.06,369.42,455.43,374.65Z" transform="translate(-313.36 -213.64)"/><path class="cls-15" d="M333,435.09c-.44-.11-2,6.35-4.9,13.61-4.63,11.65-10,18.69-9,19.4.44.32,1.92-1,3.57-2.55a31.43,31.43,0,0,0,6.13-8c1.78-3.23,3.44-6.25,3.73-10.4.12-1.79-.09-2.11,0-5.43C332.67,437.37,333.27,435.16,333,435.09Z" transform="translate(-313.36 -213.64)"/><path class="cls-16" d="M326.11,515a11.87,11.87,0,0,1-1.39,2.81,14.5,14.5,0,0,1-2,2.43,9.26,9.26,0,0,1-5.66,2.6,14.8,14.8,0,0,0,5.14-3.14A31.33,31.33,0,0,0,326.11,515Z" transform="translate(-313.36 -213.64)"/><path class="cls-17" d="M358.65,318.18c1.85-.55,3.7-1,5.52-1.64a54.74,54.74,0,0,0,5.37-2c1.75-.76,3.41-1.69,5.1-2.56s3.35-1.81,5.06-2.73l.06.08a25.59,25.59,0,0,1-4.63,3.52,30.13,30.13,0,0,1-5.29,2.43,56.26,56.26,0,0,1-5.53,1.74c-1.86.49-3.76.84-5.64,1.26Z" transform="translate(-313.36 -213.64)"/><path class="cls-18" d="M361.8,320.22c0-1,2.3-1.45,4.65-2.25,5.49-1.88,8.06-4.26,8.55-3.7s-1.6,2.8-2,3.32a11.71,11.71,0,0,1-3.32,2.94,10.56,10.56,0,0,1-4.68,1.29,3.4,3.4,0,0,1-2.21-.4C362.59,321.32,361.79,320.8,361.8,320.22Z" transform="translate(-313.36 -213.64)"/><path class="cls-19" d="M341.14,382.53a202.17,202.17,0,0,0,12.74,23.13,257.57,257.57,0,0,0,15.42,21.42,121.91,121.91,0,0,0,18.33,18.7,83.23,83.23,0,0,0,10.75,7.44A99.5,99.5,0,0,0,410.2,459l-.06.19c-1.06-.31-2.12-.64-3.17-1s-2.13-.64-3.16-1.08l-3.08-1.26-3-1.43a77.27,77.27,0,0,1-11.32-7.1c-7.13-5.42-13-12.25-18.35-19.29a258.76,258.76,0,0,1-15-21.87A205.4,205.4,0,0,1,341,382.61Z" transform="translate(-313.36 -213.64)"/><path class="cls-19" d="M352.07,377.45c2.95,7.74,6.18,15.34,9.76,22.79,1.79,3.72,3.52,7.49,5.52,11.11A92,92,0,0,0,374,421.81a104.29,104.29,0,0,0,16.87,18,128,128,0,0,0,20.41,13.95l0,.09a94.16,94.16,0,0,1-21-13.25,87.45,87.45,0,0,1-16.65-18.48,244.9,244.9,0,0,1-12.46-21.52A134.64,134.64,0,0,1,352,377.48Z" transform="translate(-313.36 -213.64)"/><path class="cls-19" d="M433.78,358.57a118.45,118.45,0,0,0,1.53,24.32c.67,4,1.62,8,2.59,11.9s2.12,7.84,3.28,11.76l-.1,0a83.94,83.94,0,0,1-4.15-11.54,89.88,89.88,0,0,1-2.41-12,110.46,110.46,0,0,1-.84-24.46Z" transform="translate(-313.36 -213.64)"/><path class="cls-19" d="M437.35,355.5c.39,2.93.85,5.85,1.46,8.73a47.46,47.46,0,0,0,2.46,8.43,16.49,16.49,0,0,0,2.13,3.73c.43.53,1,1.08,1.44,1.68a20,20,0,0,1,1.3,1.86,18.53,18.53,0,0,1,2.7,8.5l-.1,0a24.57,24.57,0,0,0-3.44-8c-.4-.6-.82-1.19-1.27-1.75s-.92-1.08-1.41-1.71a17.24,17.24,0,0,1-2.09-4,48.27,48.27,0,0,1-2.21-8.64c-.49-2.92-.82-5.87-1.07-8.81Z" transform="translate(-313.36 -213.64)"/><path class="cls-19" d="M441,354.49c.33,1.18.54,2.31.78,3.42s.52,2.2.7,3.32a15.31,15.31,0,0,0,.71,3.38,9.07,9.07,0,0,0,1.91,2.87c.82.83,1.64,1.61,2.46,2.4s1.7,1.48,2.56,2.23c1.71,1.58,3.36,3.07,5.12,4.75l-.09.18a16.79,16.79,0,0,1-6.41-3.29,17.84,17.84,0,0,1-2.56-2.58,13.77,13.77,0,0,1-2-3.07c-.52-1.1-1-2.17-1.59-3.22a30.81,30.81,0,0,1-1.74-3.21,7.71,7.71,0,0,1-.47-1.77,12.31,12.31,0,0,1-.16-1.82,10.27,10.27,0,0,1,.56-3.6Z" transform="translate(-313.36 -213.64)"/><path class="cls-19" d="M510.82,343.74c-.17.1-.76-.47-1.94-1.6-1.74-1.66-1.57-1.7-2.22-2.21-1.88-1.5-3-.95-4-2.3-.56-.75-1-2-.51-2.55.66-.84,2.79-.27,4.09.51a7.54,7.54,0,0,1,2.53,3C510.11,340.72,511.24,343.48,510.82,343.74Z" transform="translate(-313.36 -213.64)"/><path class="cls-4" d="M536.88,369.55" transform="translate(-313.36 -213.64)"/><path class="cls-20" d="M445.9,478c-1.46,2.31-.14,3-1.36,8.34-1.07,4.65-2.52,5.3-2.9,9.53-.28,3.16.49,3.16,0,5.45-.61,2.88-1.91,3.33-4.93,8.17-2.58,4.12-2.14,4.59-3.92,6.64-2.29,2.64-3.5,2.39-6.47,4.77a27.65,27.65,0,0,0-8.51,12.42c-.28.83,0,.12-1.7,7.83-1.18,5.34-.8,5.52-1.36,7.66-1.55,5.89-3.72,6.31-4.94,10.72-1.54,5.58-.14,12.43,2.14,13s3.69-5.19,10.53-13.42c4.73-5.69,9.28-9.3,15.86-14.5,3-2.37,6.21-4.63,12.65-9.15,8.13-5.7,4.69-3.14,15.16-10.44,5-3.47,5.64-4,7.41-4.77,4.17-1.84,6.83-1.77,7.91-3.91.24-.47.83-1.89-.71-5.8-2-4.94-4.29-6.14-8.61-11.89a88.08,88.08,0,0,1-6.26-9.75c-1.15-2.06-2.46-4.54-4.73-8.38-3-5.05-3.66-5.76-4.71-6.22C453.06,472.72,448,474.66,445.9,478Z" transform="translate(-313.36 -213.64)"/><path class="cls-21" d="M378.19,372.36c-.33.26-1-.26-2.76-1.27-5.77-3.28-7.39-2.68-10.38-4.61-4.13-2.66-2.12-4.45-7.15-9.44-1.59-1.58-2-1.63-10.22-7.41-2.69-1.9-3.88-2.21-5.36-3.83-2.67-2.92-4.51-7.27-3.24-8.6.41-.42.92-.32,2.48-.32,2.44,0,4.86-.42,7.29-.62,4.33-.36,6.5-.53,7-.7a3.56,3.56,0,0,1,2.06-.28c1.28.27,1.39,1.26,2.92,2s2,.09,2.69.75.43,1.85.72,3.7c.19,1.23.52,1.85,1.57,4.1,2.23,4.78,1.34,3.34,3.14,7.05C373.89,363,379.37,371.42,378.19,372.36Z" transform="translate(-313.36 -213.64)"/><path class="cls-19" d="M450.36,306.45a47.58,47.58,0,0,0-5,3.32,19.86,19.86,0,0,0-2.17,1.87,11.34,11.34,0,0,0-1.63,2.19,26,26,0,0,0-2.18,5.49,30.3,30.3,0,0,1-1,2.9c-.42.94-.87,1.87-1.3,2.77-.83,1.82-1.53,3.67-2.26,5.52s-1.35,3.77-2,5.63-1.31,3.74-1.88,5.64-1,3.85-1.57,5.82l-.2,0a32.07,32.07,0,0,1,1.63-12.13,57,57,0,0,1,2.3-5.67,31.06,31.06,0,0,1,3.05-5.34,25.54,25.54,0,0,0,1.63-2.51,11.91,11.91,0,0,0,1-2.78c.48-1.92.43-4,1.3-6.06a8.2,8.2,0,0,1,1.88-2.71,14,14,0,0,1,2.55-1.9,16.74,16.74,0,0,1,5.76-2.22Z" transform="translate(-313.36 -213.64)"/><path class="cls-22" d="M455.2,369.78a26.32,26.32,0,0,1,1.2-9.56,24.66,24.66,0,0,1,4.76-8.45,57.35,57.35,0,0,1,7.16-6.53A37.49,37.49,0,0,1,476.5,340a26.86,26.86,0,0,1,9.49-2.26,41.06,41.06,0,0,1,9.67.84,36.18,36.18,0,0,1,9.26,2.87,34.65,34.65,0,0,1,8,5.32,36.61,36.61,0,0,0-17.42-7.44,44.75,44.75,0,0,0-9.5-.68,26,26,0,0,0-9.13,2.26,36.28,36.28,0,0,0-8,5.07,65.69,65.69,0,0,0-7.16,6.33A26,26,0,0,0,455.2,369.78Z" transform="translate(-313.36 -213.64)"/><path class="cls-5" d="M341.48,424.22c.48-.1.9,1.18,3.48,6.6,3.63,7.63,4.46,8.61,5.11,11.58.55,2.54.32,3.59.34,8a171.54,171.54,0,0,0,1.19,17.19c1,8.53,1.95,8.81,3.06,16.68,1,6.82,1.86,13.12.85,20.26-1.19,8.42-4.94,14.24-12.42,25.87-8.7,13.51-14.56,17.76-17.7,19.74-5.57,3.51-11.05,5.22-11.73,4.21s4.5-4.33,6.79-11.36c.31-.94.69-1.6,1.14-2.71.9-2.15,4.26-2.93,7.69-4.48a25.81,25.81,0,0,0,8.45-5.66c1.32-1.44,2-2.71,4.13-7.66,2.62-6.1,3.93-9.16,5.27-13,2.69-7.83,4-11.75,4.38-15.81a48,48,0,0,0-1.27-14.55c-1.64-8-3.13-8-4.26-15.19-.93-5.92,0-6.66-1.19-13.15-1-5.45-1.72-5.59-2.77-11C340.63,432.52,340.33,424.45,341.48,424.22Z" transform="translate(-313.36 -213.64)"/><path class="cls-23" d="M460.54,382.31q2.68-5.16,5.36-10.47,1.55-3.07,3.06-6.12" transform="translate(-313.36 -213.64)"/><path class="cls-24" d="M375.77,539c.11,0,3.9,10.87,4.72,13.41a21.84,21.84,0,0,0,1.93,4.35s.18.32.37.62c3.75,6,12.38,8.68,12.38,8.68,1.76.58,4.35,1.5,7.41,2.86,2.34,1,7.3,3.24,7.07,4s-5.55-.27-8.48-1a32.57,32.57,0,0,1-8.42-2.81c-2.51-1.37-5.5-3.69-9.07-9.32A54.52,54.52,0,0,1,375.77,539Z" transform="translate(-313.36 -213.64)"/><path class="cls-25" d="M382.79,566c.09-.09,7.34,6.68,10.79,8.94.42.28,1.38.88,3.25,2.11,1.17.77,1.4.93,1.92,1.21a21.47,21.47,0,0,0,3.32,1.4c3.08,1.13,3.58,1.18,3.56,1.34,0,.47-4.12,1.14-8.16-.19A14,14,0,0,1,392,577.5c-1.48-1.47-1.65-2.39-2.94-4.45A30.68,30.68,0,0,0,382.79,566Z" transform="translate(-313.36 -213.64)"/><g class="cls-26"><path class="cls-27" d="M386.13,533.32A16.13,16.13,0,0,1,390.5,535c.34.18.68.36,1,.58a2.28,2.28,0,0,1,.88,1,3.53,3.53,0,0,1,0,2.5,13.77,13.77,0,0,0-.43,2.2,8,8,0,0,0,.12,2.18l.24,1.15a2.9,2.9,0,0,1,.05.7.89.89,0,0,1-.26.57.76.76,0,0,1-.75.15,4.33,4.33,0,0,1-.61-.3l-.49-.26c-.33-.16-.68-.32-1-.44a12.36,12.36,0,0,1-2.16-.94,3.79,3.79,0,0,0-1-.27,4.6,4.6,0,0,0-.49,0h-.08s.13,0,.26-.32a.44.44,0,0,0-.1-.38.22.22,0,0,0-.07-.06h0l.09,0a17.07,17.07,0,0,1,4.49,1.42,6.52,6.52,0,0,1,1.92,1.51,5.08,5.08,0,0,1,1,2.2,6.57,6.57,0,0,1,0,2.38,5.08,5.08,0,0,1-.95,2.13,5.82,5.82,0,0,0,.69-2.16,6.18,6.18,0,0,0-.25-2.23,4.42,4.42,0,0,0-1-1.9,5.63,5.63,0,0,0-1.79-1.24,19.25,19.25,0,0,0-4.39-1.2l-.18-.06a.48.48,0,0,1-.15-.07.69.69,0,0,1-.13-.11.54.54,0,0,1-.13-.43c.15-.42.34-.36.38-.41l.15,0,.2,0c.24,0,.45,0,.66,0a4.85,4.85,0,0,1,1.25.34,11.91,11.91,0,0,0,2.1.89c.39.15.75.32,1.11.5s.77.43,1,.51-.16,0-.21.07-.05.09-.05,0a2,2,0,0,0,0-.44l-.21-1.14a8.67,8.67,0,0,1-.06-2.44,11.41,11.41,0,0,1,.57-2.32,2.9,2.9,0,0,0,.14-2c-.21-.6-.95-1-1.59-1.38A18.43,18.43,0,0,0,386.13,533.32Z" transform="translate(-313.36 -213.64)"/></g><path class="cls-28" d="M409.85,507.67c-.57-.2-2,3.12-4.34,7.28-6.13,11-12.95,18.2-11.74,19.41.54.53,2-.78,4.85-.13a4.23,4.23,0,0,1,2.55,1.27c.68.85.61,1.84.26,5-.43,3.86-.66,5.41-.51,5.44a11.35,11.35,0,0,0,1.15-3.32,51.2,51.2,0,0,0,1.15-8.55c.28-3.21.43-4.82.49-5.11.36-1.81.77-2.7,2.57-7.27,1.37-3.47,2.05-5.2,2.3-6C409.6,512.4,410.5,507.91,409.85,507.67Z" transform="translate(-313.36 -213.64)"/><g class="cls-29"><path class="cls-24" d="M455.3,385.69c1.41-1.16,2.83-2.28,4.29-3.36s2.9-2.17,4.37-3.22l.05,0,.07,0c1.63-.58,3.25-1.16,4.89-1.71l0,0a48.23,48.23,0,0,1,5.61-2.18c.95-.3,1.9-.59,2.83-.95s1.87-.67,2.82-1c-.87.48-1.77.92-2.66,1.38s-1.84.81-2.76,1.2c-1.83.75-3.64,1.57-5.44,2.41h0c-1.62.59-3.26,1.14-4.9,1.7l.12-.06q-2.25,1.52-4.56,3T455.3,385.69Z" transform="translate(-313.36 -213.64)"/></g><path class="cls-30" d="M512.11,506.4c-.57.08,2.29,14.3,4.43,39.83A121.33,121.33,0,0,0,523,577.55c.39,1.09,2.72,7.67,3.41,7.49s-.5-6.31-3.41-21.79l-4.08-21.79C513.47,513.25,512.5,506.34,512.11,506.4Z" transform="translate(-313.36 -213.64)"/><path class="cls-30" d="M512.12,506.5c.08-.05,0,0,0,.05a.61.61,0,0,0,0,.14V507l.05.62.15,1.24.33,2.49.68,5c.47,3.31.95,6.63,1.38,9.94q1.32,10,2.31,20a122.41,122.41,0,0,0,3.21,19.7q1.2,4.85,2.82,9.57c.54,1.57,1.1,3.14,1.71,4.68.3.77.61,1.54,1,2.28.16.38.33.75.51,1.1l.28.5a3.18,3.18,0,0,0,.21.3.35.35,0,0,0-.21-.1.64.64,0,0,0-.41,0,.75.75,0,0,0-.27.2c-.14.23-.06.13-.07.1s0-.32,0-.5c0-.38-.07-.79-.12-1.19-.11-.81-.24-1.63-.38-2.45-.28-1.63-.58-3.28-.9-4.92l-1.92-9.84-1.89-9.85L518.75,546,517,536.08l-1.58-9.92-1.56-9.92-.84-4.95-.44-2.47-.23-1.23-.14-.6c0-.1,0-.21-.08-.3S512,506.48,512.12,506.5Zm0-.2a.23.23,0,0,1,.11,0l0,.05a.2.2,0,0,1,0,.09.47.47,0,0,1,.06.15c0,.1.07.21.1.31l.16.61.28,1.23.51,2.46,1,4.92,2.11,9.81,2.16,9.8,2,9.83,1.89,9.86,1.8,9.88,1.74,9.89c.28,1.65.55,3.3.81,5,.12.83.24,1.66.33,2.52.05.42.09.85.11,1.31a6.59,6.59,0,0,1,0,.75,1.37,1.37,0,0,1-.25.69,1,1,0,0,1-.39.31,1,1,0,0,1-.56.05,1.24,1.24,0,0,1-.48-.26,2.9,2.9,0,0,1-.53-.7,6,6,0,0,1-.33-.6c-.19-.4-.37-.79-.54-1.18-.33-.79-.64-1.58-.94-2.37-.59-1.57-1.13-3.16-1.66-4.76q-1.56-4.82-2.71-9.73A125.46,125.46,0,0,1,516,546.3q-.69-10-1.73-20c-.36-3.32-.73-6.65-1.16-10l-.68-5-.33-2.49-.14-1.25-.06-.63v-.32a1,1,0,0,1,0-.17S511.92,506.39,512.1,506.3Z" transform="translate(-313.36 -213.64)"/><path class="cls-30" d="M526.16,521.68A219.68,219.68,0,0,1,533,543.73a164.7,164.7,0,0,1,4.35,22.72,142.1,142.1,0,0,1,.78,23.14c-.31,7.69-.86,15.37-1.76,23l-.2,0c-.07-1.92-.07-3.85-.1-5.77v-5.76c0-3.85,0-7.69,0-11.53.08-7.67.32-15.31-.38-22.93A161.56,161.56,0,0,0,532,544,219.63,219.63,0,0,0,526,521.75Z" transform="translate(-313.36 -213.64)"/><path class="cls-30" d="M399.27,619.83a156.05,156.05,0,0,1,16.87,2.77,135.63,135.63,0,0,1,16.45,4.8A67.32,67.32,0,0,1,448.05,635a27.85,27.85,0,0,1,6.38,6,21.77,21.77,0,0,1,3.65,7.84l-.19.07a28.88,28.88,0,0,0-2-3.71,22.19,22.19,0,0,0-2.5-3.32,33.37,33.37,0,0,0-6.43-5.2A97.3,97.3,0,0,0,432,628.89a134.4,134.4,0,0,0-16.11-5.32A155,155,0,0,0,399.25,620Z" transform="translate(-313.36 -213.64)"/><path class="cls-31" d="M425.13,609.89a30.2,30.2,0,0,1,13.62,11.4,29.5,29.5,0,0,1,4.35,11.87" transform="translate(-313.36 -213.64)"/><path class="cls-32" d="M390.74,645.53q12-1.38,24.15-1.74a204.61,204.61,0,0,1,24.25.54,76.12,76.12,0,0,1,23.58,6.15,95.47,95.47,0,0,1,10.76,5.73c1.7,1.12,3.41,2.21,5,3.41s3.23,2.44,4.8,3.72l-.12.16c-1.75-1-3.41-2.15-5.18-3.12s-3.48-2-5.24-3a112.74,112.74,0,0,0-10.85-5.1,90.69,90.69,0,0,0-23-6.4,200.77,200.77,0,0,0-24.06-1.13q-12.07,0-24.14.94Z" transform="translate(-313.36 -213.64)"/><path class="cls-3" d="M461.81,529.89c-1.49,5,5.54,10.54,12.77,17.61,0,0,13.66,13.37,23,28.09,9.46,14.95,4.56,16.16,14.55,31.15,1.81,2.72,13.91,17.09,14.81,24,0,.34.47,2.36,1.31,6.4.67,3.16,1,4.74,1.71,4.82s.77-1.26,2.6-3.05c1.33-1.31,2-1.37,2.36-2.34s-.17-1.94-.59-3.09a32,32,0,0,1-.75-6.06c-.52-6.22,1.48-18.29,0-26-.53-2.77-3.72-8.06-10.08-18.52-12.18-20-12.13-18.43-16.16-26.15-5.24-10-5.85-13.8-11.28-20.9-3.22-4.21-6.27-6.62-12.38-11.44a12.61,12.61,0,0,0-5.78-3c-4.08-.72-7.57,1.24-9.45,2.3C466.07,525.1,462.66,527,461.81,529.89Z" transform="translate(-313.36 -213.64)"/><path class="cls-30" d="M489.21,525.57a297.9,297.9,0,0,1,16.36,25q3.74,6.48,7,13.23c1.09,2.24,2.19,4.46,3.4,6.61s2.52,4.23,3.93,6.26,2.91,4,4.48,5.89a68.17,68.17,0,0,1,4.64,6,43.92,43.92,0,0,1,3.5,6.77,38.76,38.76,0,0,1,2.38,7.28,31.75,31.75,0,0,1,.55,7.65c-.12,2.55-.51,5-.85,7.48a27.5,27.5,0,0,0-.18,7.3,25.44,25.44,0,0,0,2,7.1l-.18.09a23.8,23.8,0,0,1-2.68-7,28.42,28.42,0,0,1-.31-7.59c.16-2.51.51-5,.51-7.39a29.38,29.38,0,0,0-.78-7.18,36.94,36.94,0,0,0-2.33-6.88,44,44,0,0,0-3.25-6.52A69.91,69.91,0,0,0,523,583.7c-1.55-2-3-4-4.41-6.1s-2.7-4.25-3.88-6.46-2.26-4.49-3.3-6.75q-3.12-6.78-6.69-13.31c-4.75-8.73-10.05-17.17-15.65-25.39Z" transform="translate(-313.36 -213.64)"/></svg>